<svg xmlns="http://www.w3.org/2000/svg" width="50" height="50" viewBox="0 0 50 50">
  <g id="Group_13" data-name="Group 13" transform="translate(-1262 -906)">
    <circle id="Ellipse_1" data-name="Ellipse 1" cx="2.5" cy="2.5" r="2.5" transform="translate(1262 906)" fill="#c09990"/>
    <circle id="Ellipse_5" data-name="Ellipse 5" cx="2.5" cy="2.5" r="2.5" transform="translate(1262 921)" fill="#c09990"/>
    <circle id="Ellipse_9" data-name="Ellipse 9" cx="2.5" cy="2.5" r="2.5" transform="translate(1262 936)" fill="#c09990"/>
    <circle id="Ellipse_13" data-name="Ellipse 13" cx="2.5" cy="2.5" r="2.5" transform="translate(1262 951)" fill="#c09990"/>
    <circle id="Ellipse_2" data-name="Ellipse 2" cx="2.5" cy="2.5" r="2.5" transform="translate(1277 906)" fill="#c09990"/>
    <circle id="Ellipse_6" data-name="Ellipse 6" cx="2.5" cy="2.5" r="2.5" transform="translate(1277 921)" fill="#c09990"/>
    <circle id="Ellipse_10" data-name="Ellipse 10" cx="2.5" cy="2.5" r="2.5" transform="translate(1277 936)" fill="#c09990"/>
    <circle id="Ellipse_14" data-name="Ellipse 14" cx="2.5" cy="2.5" r="2.5" transform="translate(1277 951)" fill="#c09990"/>
    <circle id="Ellipse_3" data-name="Ellipse 3" cx="2.5" cy="2.5" r="2.5" transform="translate(1292 906)" fill="#c09990"/>
    <circle id="Ellipse_7" data-name="Ellipse 7" cx="2.5" cy="2.5" r="2.5" transform="translate(1292 921)" fill="#c09990"/>
    <circle id="Ellipse_11" data-name="Ellipse 11" cx="2.5" cy="2.5" r="2.5" transform="translate(1292 936)" fill="#c09990"/>
    <circle id="Ellipse_15" data-name="Ellipse 15" cx="2.5" cy="2.5" r="2.5" transform="translate(1292 951)" fill="#c09990"/>
    <circle id="Ellipse_4" data-name="Ellipse 4" cx="2.5" cy="2.5" r="2.5" transform="translate(1307 906)" fill="#c09990"/>
    <circle id="Ellipse_8" data-name="Ellipse 8" cx="2.5" cy="2.5" r="2.5" transform="translate(1307 921)" fill="#c09990"/>
    <circle id="Ellipse_12" data-name="Ellipse 12" cx="2.5" cy="2.5" r="2.5" transform="translate(1307 936)" fill="#c09990"/>
    <circle id="Ellipse_16" data-name="Ellipse 16" cx="2.5" cy="2.5" r="2.5" transform="translate(1307 951)" fill="#c09990"/>
  </g>
</svg>
