<svg xmlns="http://www.w3.org/2000/svg" width="194.068" height="50.415" viewBox="0 0 194.068 50.415">
  <g id="Group_9" data-name="Group 9" transform="translate(-60 -19.629)">
    <g id="Group_2" data-name="Group 2" transform="translate(-1317.836 -1092.205)">
      <path id="Path_1" data-name="Path 1" d="M1652.99,1465.116a4.754,4.754,0,0,0,.521,1.506,7.217,7.217,0,0,1,.4.706,2.911,2.911,0,0,1,.167.758c.067.569.17,1.125.289,1.685q.042.194.081.389c.029.141.041.283.066.424a3.9,3.9,0,0,0,.292.8c.441,1.05.844,2.117,1.275,3.171q.66,1.612,1.343,3.214a18.459,18.459,0,0,0,3.128,5.368,8.761,8.761,0,0,0,2.2,1.76,6.929,6.929,0,0,0,1.3.555,8.616,8.616,0,0,0,1.632.309,32.48,32.48,0,0,0,3.354.181,16.8,16.8,0,0,0,3.254-.276q.376-.074.747-.172a.2.2,0,0,0-.105-.381,19.526,19.526,0,0,1-6.427.323,8.916,8.916,0,0,1-3.032-.621,7.828,7.828,0,0,1-2.229-1.535,15.619,15.619,0,0,1-3.211-5.094c-.908-2.063-1.754-4.156-2.583-6.252-.1-.255-.2-.51-.308-.763a2.825,2.825,0,0,1-.254-.772,8.132,8.132,0,0,0-.164-.849c-.058-.271-.115-.543-.162-.817a6.858,6.858,0,0,0-.3-1.592,7.582,7.582,0,0,0-.383-.686,4.281,4.281,0,0,1-.31-.693,4.643,4.643,0,0,1-.188-.75.2.2,0,0,0-.243-.138.2.2,0,0,0-.138.243Z" transform="translate(-253.149 -324.804)"/>
      <path id="Path_2" data-name="Path 2" d="M1921.146,1249.757a11.682,11.682,0,0,0-3.123,2.522,8.557,8.557,0,0,0-1.2,1.781,17.6,17.6,0,0,0-.778,2.005c-.951,2.718-1.736,5.56-3.336,7.989a13.033,13.033,0,0,1-1.369,1.718,22.5,22.5,0,0,0-1.52,1.834c-.478.635-.931,1.287-1.39,1.935a9.541,9.541,0,0,0-.62.931,8.144,8.144,0,0,0-.437.965c-.261.675-.458,1.371-.7,2.052-.266.75-.578,1.484-.853,2.23-.463,1.259-.88,2.533-1.282,3.812-.376,1.2-.745,2.4-1.172,3.584-.465,1.288-1.552,2.2-2.271,3.337a5.449,5.449,0,0,0-.458.9c-.094.236.288.339.381.105.506-1.271,1.6-2.175,2.294-3.328a8.925,8.925,0,0,0,.75-1.822c.2-.581.383-1.165.567-1.75.383-1.214.76-2.43,1.178-3.633.493-1.418,1.082-2.8,1.546-4.228a11.8,11.8,0,0,1,.8-2.022,9.524,9.524,0,0,1,.619-.931c.232-.327.463-.656.7-.983.454-.636.917-1.266,1.416-1.868.484-.583,1.026-1.113,1.5-1.707,1.784-2.257,2.7-5.029,3.6-7.718.233-.69.468-1.38.718-2.064a9.323,9.323,0,0,1,.919-1.937,10.364,10.364,0,0,1,2.926-2.874q.39-.262.8-.492a.2.2,0,0,0-.2-.341Z" transform="translate(-480.984 -126.87)"/>
      <path id="Path_3" data-name="Path 3" d="M2072.887,1132.617c.8-1.732,1.545-3.49,2.372-5.21.409-.851.839-1.692,1.307-2.513a22.748,22.748,0,0,1,1.5-2.341,3.1,3.1,0,0,1,2.062-1.459.2.2,0,0,0,.2-.2.2.2,0,0,0-.2-.2,3.124,3.124,0,0,0-2.087,1.253,16.913,16.913,0,0,0-1.554,2.3,51.477,51.477,0,0,0-2.593,5.184c-.447,1-.886,1.995-1.345,2.986a.2.2,0,0,0,.071.27.2.2,0,0,0,.27-.071Z" transform="translate(-639.138 -8.156)"/>
      <path id="Path_4" data-name="Path 4" d="M1821.338,1344.571a21.606,21.606,0,0,1-.109-3.467,10.369,10.369,0,0,1,.184-1.652,5.081,5.081,0,0,1,.581-1.5c.269-.464.582-.9.888-1.341s.631-.9.951-1.344q.962-1.337,1.964-2.645,2.005-2.615,4.17-5.1t4.48-4.84c.779-.794,1.563-1.585,2.3-2.422a22.71,22.71,0,0,0,2.016-2.667q.227-.352.442-.711a.2.2,0,0,0-.341-.2,22.5,22.5,0,0,1-1.939,2.763c-.716.864-1.495,1.672-2.279,2.473-1.554,1.585-3.081,3.193-4.548,4.859s-2.863,3.355-4.215,5.1-2.667,3.5-3.884,5.332a6.949,6.949,0,0,0-.76,1.424,6.565,6.565,0,0,0-.339,1.608,19.881,19.881,0,0,0-.033,3.467q.031.433.08.864a.2.2,0,0,0,.2.2.2.2,0,0,0,.2-.2Z" transform="translate(-407.547 -188.384)"/>
      <path id="Path_5" data-name="Path 5" d="M2155.662,1120.917v0l-.051.087s-.115.074-.159.047a.133.133,0,0,0,.021,0l.063.019a1.026,1.026,0,0,1,.143.064,1.118,1.118,0,0,1,.334.24c.2.229.027.623-.042.872a19.885,19.885,0,0,1-.773,2.094,7.566,7.566,0,0,0-.594,2.154,3.963,3.963,0,0,0-.01.567c.01.19.043.378.045.569a5.838,5.838,0,0,1-.131,1.076,4.116,4.116,0,0,0-.093,1.24,1.871,1.871,0,0,0,.176.6.527.527,0,0,1,.071.279.944.944,0,0,1-.085.31.2.2,0,0,0,.138.243.2.2,0,0,0,.243-.138,1.065,1.065,0,0,0,.077-.649,1.652,1.652,0,0,0-.123-.288,1.42,1.42,0,0,1-.082-.258,2.874,2.874,0,0,1,.036-1.1,8.581,8.581,0,0,0,.167-1.2,5.525,5.525,0,0,0-.038-.6,3.938,3.938,0,0,1,0-.585,7.518,7.518,0,0,1,.646-2.264,17.1,17.1,0,0,0,.787-2.211,1.383,1.383,0,0,0,.043-.665.851.851,0,0,0-.345-.47,1.846,1.846,0,0,0-.458-.25c-.126-.048-.356-.078-.385.112a.2.2,0,0,0,.138.243.2.2,0,0,0,.243-.138Z" transform="translate(-714.465 -8.124)"/>
      <path id="Path_6" data-name="Path 6" d="M1697.8,1275.228a3.681,3.681,0,0,1,2.772-1.281c1.329-.09,2.652.182,3.982.088a15.72,15.72,0,0,0,6.09-2.024,57.02,57.02,0,0,1,5.921-2.993,14.717,14.717,0,0,1,1.609-.515c.63-.161,1.271-.284,1.887-.495a11.665,11.665,0,0,0,3.095-1.923,10.985,10.985,0,0,1,6.7-2.216q.448.006.894.049a1.851,1.851,0,0,1,.773.154c.221.138.036.481-.042.666a3.491,3.491,0,0,1-1.53,1.686,4.609,4.609,0,0,1-1.724.463,7.108,7.108,0,0,0-1.895.437c-.611.249-1.2.559-1.786.853l-3.76,1.87a18.889,18.889,0,0,0-5.977,3.982,9.506,9.506,0,0,1-1.153,1.182,3.237,3.237,0,0,1-1.62.616,4.851,4.851,0,0,0-1.754.5,16.575,16.575,0,0,0-1.462,1.042,13.2,13.2,0,0,1-8.452,2.44c-.254-.015-.253.381,0,.4a13.7,13.7,0,0,0,7.123-1.552,13.1,13.1,0,0,0,1.552-.958,13.994,13.994,0,0,1,1.514-1.066,5.905,5.905,0,0,1,1.854-.456,3.3,3.3,0,0,0,1.565-.708,11.009,11.009,0,0,0,1.165-1.209,10.61,10.61,0,0,1,1.337-1.251,19.522,19.522,0,0,1,3.189-1.949c1.211-.621,2.435-1.217,3.653-1.823l1.941-.965a10.4,10.4,0,0,1,1.849-.789c.654-.179,1.338-.181,2-.322a3.767,3.767,0,0,0,1.5-.685,3.934,3.934,0,0,0,1.035-1.172c.221-.386.6-1.086.2-1.469a1.209,1.209,0,0,0-.7-.255c-.306-.041-.612-.07-.92-.084a10.873,10.873,0,0,0-1.817.066,11.381,11.381,0,0,0-3.5,1,10.775,10.775,0,0,0-1.6.93c-.514.361-1,.76-1.509,1.128a7.242,7.242,0,0,1-1.612.928,15.643,15.643,0,0,1-1.94.535,26.089,26.089,0,0,0-6.229,2.742,22.78,22.78,0,0,1-6.138,2.634,9.765,9.765,0,0,1-1.619.2,19.521,19.521,0,0,1-2.074-.078,6.853,6.853,0,0,0-3.55.463,3.233,3.233,0,0,0-1.183.988c-.151.205.192.4.341.2Z" transform="translate(-294.031 -139.513)"/>
      <path id="Path_7" data-name="Path 7" d="M1804.462,1458.658a11.436,11.436,0,0,1,.895,1.453,4.048,4.048,0,0,1,.408,1.638,8.711,8.711,0,0,0,.135,1.82,9.214,9.214,0,0,0,.688,1.59,2.385,2.385,0,0,1,.247,1.777.2.2,0,0,0,.381.1,2.5,2.5,0,0,0-.135-1.731c-.216-.543-.535-1.041-.725-1.595a5.947,5.947,0,0,1-.191-1.817,5.237,5.237,0,0,0-.092-.928,4.262,4.262,0,0,0-.268-.825,10,10,0,0,0-1-1.686.2.2,0,0,0-.27-.071.2.2,0,0,0-.071.27Z" transform="translate(-392.486 -318.819)"/>
      <path id="Path_8" data-name="Path 8" d="M1726.733,1322.869a.9.9,0,0,1,.862-.291,13.126,13.126,0,0,1,1.317.108,5.537,5.537,0,0,0,1.557.073,4.687,4.687,0,0,0,1.252-.4,10.317,10.317,0,0,1,2.43-.994,3.517,3.517,0,0,0,1.421-.412c.207-.137.393-.3.589-.454s.372-.272.567-.4a7.544,7.544,0,0,1,2.937-1.08.2.2,0,0,0,.138-.243.2.2,0,0,0-.243-.138,7.822,7.822,0,0,0-2.713.929,9.092,9.092,0,0,0-1.209.841,2.175,2.175,0,0,1-.59.368,3.579,3.579,0,0,1-.723.158,5.247,5.247,0,0,0-.722.146,5.661,5.661,0,0,0-.634.235c-.406.174-.8.385-1.193.577a5.221,5.221,0,0,1-1.231.448,4.325,4.325,0,0,1-1.454-.031,13.345,13.345,0,0,0-1.552-.134,1.233,1.233,0,0,0-1.148.488c-.137.215.2.414.341.2Z" transform="translate(-320.655 -190.27)"/>
      <path id="Path_9" data-name="Path 9" d="M1888.608,1254.166l5.157-2.48,2.56-1.232a16.416,16.416,0,0,1,2.517-1.054c.968-.281,1.97-.435,2.922-.773a.2.2,0,0,0,.138-.243.2.2,0,0,0-.243-.138c-.853.3-1.746.458-2.618.689a14.428,14.428,0,0,0-2.561,1.008l-5.155,2.479-2.916,1.4a.2.2,0,0,0-.071.27.2.2,0,0,0,.27.071Z" transform="translate(-469.658 -125.496)"/>
      <path id="Path_10" data-name="Path 10" d="M2025.033,1260.93a5.15,5.15,0,0,1,.7-.217q.131-.03.265-.051l.055-.008.027,0h-.009l.116-.014a2.63,2.63,0,0,0,.876-.225,4.284,4.284,0,0,0,.676-.431.2.2,0,0,0,.071-.271.2.2,0,0,0-.271-.071,4.654,4.654,0,0,1-.6.393,1.5,1.5,0,0,1-.393.152c-.062.015-.125.026-.188.036l-.03,0,.015,0-.046.006-.1.012c-.165.019-.329.041-.491.074a5,5,0,0,0-.772.234.2.2,0,0,0-.138.243.2.2,0,0,0,.243.138Z" transform="translate(-595.216 -135.961)"/>
      <path id="Path_11" data-name="Path 11" d="M2055.052,1123.992c.173-1.2.347-2.409.587-3.6a22.077,22.077,0,0,1,.969-3.494,14.167,14.167,0,0,1,1.663-3.143,13.556,13.556,0,0,1,1.1-1.363.862.862,0,0,1,.139-.141.091.091,0,0,1,.083-.019.3.3,0,0,1,.175.17c.108.236-.068.544-.139.767a4.3,4.3,0,0,0,.05,1.862,1.734,1.734,0,0,1-.232,1.27.805.805,0,0,1-.228.2.2.2,0,0,0,.2.341,1.546,1.546,0,0,0,.673-1.3c.038-.62-.191-1.219-.161-1.839.027-.56.558-1.241.012-1.715a.572.572,0,0,0-.382-.153.578.578,0,0,0-.4.2c-.213.222-.413.458-.607.7a14.216,14.216,0,0,0-1.98,3.218,19.587,19.587,0,0,0-1.173,3.667c-.28,1.252-.475,2.521-.659,3.79l-.069.479a.2.2,0,0,0,.138.243.2.2,0,0,0,.243-.138Z" transform="translate(-622.711)"/>
      <path id="Path_12" data-name="Path 12" d="M1673.674,1490.8a75.767,75.767,0,0,0,4.106,9.449c.789,1.481,1.648,2.924,2.559,4.332a20.713,20.713,0,0,0,3.314,4.3,6.573,6.573,0,0,0,2.3,1.389,3.258,3.258,0,0,0,.634.149,5.518,5.518,0,0,1,.7.064,5.8,5.8,0,0,0,1.47.21c1.024,0,2.052-.126,3.074-.178,1.061-.054,2.124-.091,3.186-.119,4.2-.109,8.406-.138,12.609-.2,2.11-.031,4.219-.067,6.329-.091a56.288,56.288,0,0,1,6.388.009c.524.055.983.119,1.5.2.249.041.177-.423-.074-.464-4.055-.664-8.144-.142-12.234-.082-4.158.061-8.316.112-12.474.184-2.093.036-4.187.091-6.277.221a10.7,10.7,0,0,1-3.052.02,4.9,4.9,0,0,0-.622-.144,5.757,5.757,0,0,1-.679-.06,4.778,4.778,0,0,1-1.342-.541,12.216,12.216,0,0,1-3.722-4.032c-.936-1.393-1.826-2.817-2.648-4.28a67.677,67.677,0,0,1-4.177-9.147q-.246-.648-.486-1.3c-.087-.237-.469-.134-.381.105Z" transform="translate(-272.17 -348.441)"/>
      <path id="Path_13" data-name="Path 13" d="M1824.526,1337.559a13.082,13.082,0,0,1,.237-3.521,6.067,6.067,0,0,1,.637-1.64,7.8,7.8,0,0,1,1.062-1.376c.41-.442.843-.862,1.247-1.309s.8-.937,1.162-1.43c.747-1,1.423-2.054,2.139-3.078a45.535,45.535,0,0,1,4.273-5.085c1.5-1.586,3.034-3.138,4.442-4.806a24.538,24.538,0,0,0,3.562-5.349c.114-.243.222-.49.325-.738a.2.2,0,0,0-.138-.243.2.2,0,0,0-.243.138,22.314,22.314,0,0,1-3.4,5.451c-1.385,1.693-2.916,3.258-4.422,4.842a51.288,51.288,0,0,0-4.29,4.964c-.744,1.015-1.422,2.077-2.15,3.1-.361.509-.734,1.008-1.135,1.487s-.808.9-1.229,1.333a13.379,13.379,0,0,0-1.17,1.332,6.059,6.059,0,0,0-.834,1.567,10.2,10.2,0,0,0-.487,3.484c0,.292.009.583.019.875.009.254.4.255.4,0Z" transform="translate(-410.591 -181.378)"/>
      <path id="Path_14" data-name="Path 14" d="M1690.837,1370.418a.79.79,0,0,0-.4.911.658.658,0,0,0,.472.436.778.778,0,0,0,.619-.285,3.343,3.343,0,0,0,.449-1.367,3.8,3.8,0,0,1,.536-1.136,2.142,2.142,0,0,1,1.019-.81.2.2,0,0,0,.138-.243.2.2,0,0,0-.243-.138,2.66,2.66,0,0,0-1.35,1.134,4.2,4.2,0,0,0-.4.828,6.079,6.079,0,0,0-.227.915c-.054.283-.177.725-.544.707l.1.027a.439.439,0,0,1-.184-.162c-.019-.035,0,0-.013-.03a.383.383,0,0,1-.015-.06c.005.035,0-.021,0-.028s0-.027,0-.04c0,.016,0,.016,0,0a.433.433,0,0,1,.234-.319c.224-.121.024-.463-.2-.341Z" transform="translate(-287.575 -235.478)"/>
      <path id="Path_15" data-name="Path 15" d="M1725.5,1455.1c.012,0,.073,0,.044,0s.008,0,.01,0a.081.081,0,0,1-.019-.011s.015.017-.009-.008-.033-.033-.048-.051,0,0,0,0l-.017-.024c-.013-.02-.026-.04-.038-.061s-.021-.037-.03-.056-.029-.063-.024-.052a1.172,1.172,0,0,1-.045-.134c-.006-.02-.011-.041-.015-.061l-.006-.03c-.012-.061,0,.019,0-.015a.541.541,0,0,1,0-.114c0,.035,0,.011,0-.007s0,.008,0,.009c.033-.014.059-.052.095-.067a.4.4,0,0,1,.156-.025.651.651,0,0,1,.323.1c.254.148.459.363.718.506a3.412,3.412,0,0,0,1.711.37,4.69,4.69,0,0,0,.9-.091,6.142,6.142,0,0,0,.765-.238,3.078,3.078,0,0,1,.88-.2,1.059,1.059,0,0,0,.351-.059c.049-.019.1-.039.147-.057.022-.008.047-.012.069-.021s.016-.012,0,0-.017,0-.007,0q.119,0-.152-.155c.008.254.4.255.4,0a.242.242,0,0,0-.288-.235,1.37,1.37,0,0,0-.3.1c-.021.008-.043.016-.065.022s-.062.011-.018.008c-.083.005-.167,0-.25.011a2.97,2.97,0,0,0-.493.089c-.289.078-.566.2-.852.284a3.789,3.789,0,0,1-.956.148,2.953,2.953,0,0,1-1.844-.44,2.344,2.344,0,0,0-.849-.513.721.721,0,0,0-.786.28.909.909,0,0,0,.082.751c.106.231.29.467.569.428a.2.2,0,0,0,.138-.243.2.2,0,0,0-.243-.138Z" transform="translate(-319.313 -314.809)"/>
      <path id="Path_16" data-name="Path 16" d="M1817.816,1348.929c-.194.334-.4.662-.617.98-.1.148-.207.294-.309.419-.048.058-.1.115-.148.169-.022.023-.045.046-.068.067l-.032.028c-.041.037.015-.007-.01.008s-.038.021-.055.032c.038-.027.037-.013.014-.008s.055,0,.023,0a.215.215,0,0,1,.086.035c.013.012.039.057.02.027a.136.136,0,0,1-.007-.033c.014.055,0,.016,0,0a.965.965,0,0,1,.008-.148,1.429,1.429,0,0,1,.153-.371q.337-.673.717-1.322a32.754,32.754,0,0,1,3.54-4.86c1.313-1.522,2.719-2.962,4.131-4.392,1.36-1.377,2.732-2.745,4.027-4.184a29.554,29.554,0,0,0,3.321-4.329q.165-.271.321-.547a.2.2,0,0,0-.341-.2,21.6,21.6,0,0,1-1.476,2.252c-.557.75-1.154,1.469-1.771,2.17-.644.731-1.31,1.441-1.986,2.142-.7.725-1.409,1.441-2.118,2.158s-1.435,1.453-2.14,2.191-1.417,1.506-2.1,2.286-1.335,1.583-1.954,2.412a28.84,28.84,0,0,0-1.721,2.57q-.39.66-.739,1.345a1.732,1.732,0,0,0-.271.805.376.376,0,0,0,.187.366c.269.12.533-.225.677-.4a10.048,10.048,0,0,0,.7-1.009q.141-.225.274-.455a.2.2,0,0,0-.341-.2Z" transform="translate(-403.421 -200.908)"/>
      <path id="Path_17" data-name="Path 17" d="M1419.792,1718.316a8.162,8.162,0,0,1-1.859.437q-1.03.147-2.063.266-2.049.24-4.107.39-4.074.3-8.163.234c-1.377-.021-2.753-.078-4.128-.153-1.353-.074-2.707-.153-4.063-.13-1.381.024-2.753.179-4.131.261a27.959,27.959,0,0,1-4.018-.086,35.04,35.04,0,0,0-4.606-.129c-1.548.073-3.089.244-4.628.415-.25.028-.253.423,0,.4a44.3,44.3,0,0,1,8.257-.366,39.3,39.3,0,0,0,4.086.207c1.379-.039,2.751-.2,4.129-.271,2.731-.14,5.466.165,8.195.233q4.125.1,8.247-.159,2.306-.147,4.6-.408,1.133-.129,2.263-.285a9,9,0,0,0,2.093-.469c.234-.092.132-.475-.105-.381Z" transform="translate(0 -557.973)"/>
      <g id="Group_1" data-name="Group 1" transform="translate(1397.054 1117.196)">
        <path id="Path_18" data-name="Path 18" d="M1657,1219.08a.216.216,0,0,1,.145.1c-.021-.039.007.048,0-.006s-.023-.117-.03-.177c-.027-.228-.039-.458-.053-.686q-.017-.279-.034-.559a.842.842,0,0,1,0-.271c.015-.053.034-.1.046-.157.03-.136.049-.275.071-.412a3.578,3.578,0,0,0,.082-.5c0-.364-.427-.506-.7-.619l-.029.375,1.529-.123.888-.072c.306-.025.655-.088.75-.434a1.172,1.172,0,0,0-.124-.738,2.568,2.568,0,0,1-.183-.751,2.533,2.533,0,0,1,.359-1.522,3.986,3.986,0,0,0,.493-.707.744.744,0,0,0-.086-.691,1.468,1.468,0,0,0-.443-.369,1.32,1.32,0,0,1-.444-.35c-.157-.242-.075-.647-.117-.937a3.443,3.443,0,0,0-.356-1.007c-.287-.587-.691-1.287-.379-1.945l-.4-.009c.467.854-.247,1.768-.728,2.433a17.046,17.046,0,0,1-1.552,1.916,5.94,5.94,0,0,1-1.918,1.381,7.194,7.194,0,0,1-1.263.342,2.1,2.1,0,0,0-1.153.577,1.22,1.22,0,0,0-.183,1.274c.16.473.328.938.45,1.422a11.966,11.966,0,0,1,.274,1.488,8.219,8.219,0,0,1,.071,1.469,2.038,2.038,0,0,1-.152.687,6.353,6.353,0,0,1-.344.633,3.979,3.979,0,0,0-.457,1.328,10.376,10.376,0,0,0-.115,1.411c-.014.453-.011.907.017,1.36a9.272,9.272,0,0,0,.527,2.676,6.315,6.315,0,0,0,.6,1.211,11.4,11.4,0,0,1,.7,1.116,2.178,2.178,0,0,1,.2.6c.041.243.467.223.422-.044a8.865,8.865,0,0,0-1.246-2.358,7.621,7.621,0,0,1-.725-2.575,14,14,0,0,1-.025-2.738,4.708,4.708,0,0,1,.287-1.382c.177-.44.493-.815.634-1.271a4.074,4.074,0,0,0,.089-1.459,12.3,12.3,0,0,0-.187-1.509,11.889,11.889,0,0,0-.375-1.466c-.077-.237-.171-.468-.246-.705a.984.984,0,0,1-.033-.656,1.271,1.271,0,0,1,.918-.665c.44-.119.891-.17,1.321-.329a5.966,5.966,0,0,0,2.021-1.329,14.19,14.19,0,0,0,1.6-1.894,3.976,3.976,0,0,0,1.134-2.445,1.532,1.532,0,0,0-.182-.642.225.225,0,0,0-.4-.009,2.1,2.1,0,0,0,.162,1.765c.133.286.287.563.407.855a2.345,2.345,0,0,1,.168.879,1.253,1.253,0,0,0,.223.817,1.825,1.825,0,0,0,.476.373c.081.05.162.1.238.159a.575.575,0,0,1,.136.143.511.511,0,0,1-.153.563,2.832,2.832,0,0,0-.682,1.465,3,3,0,0,0,.21,1.589c.061.153.177.415.011.541a.449.449,0,0,1-.248.062l-.76.062-1.753.142c-.224.018-.21.3-.03.375a2.01,2.01,0,0,1,.342.154.557.557,0,0,1,.051.037c.011.01.027.043.019.016a.648.648,0,0,1-.032.211c-.029.167-.054.335-.082.5-.024.143-.052.19-.08.335a2.41,2.41,0,0,0,.014.582c.01.163.02.326.031.489.014.214.023.431.057.643.023.146.088.343.27.349a.2.2,0,0,0,.229-.165.223.223,0,0,0-.2-.224Z" transform="translate(-1648.292 -1204.06)" fill="#161615"/>
        <path id="Path_19" data-name="Path 19" d="M1619.885,1193.257a2.736,2.736,0,0,0-.658-1.632,5.286,5.286,0,0,0-.605-.564c-.048-.044-.089-.1-.137-.139s.031.047.03.054a.161.161,0,0,0-.014-.032c-.012-.038-.026-.075-.036-.114a1.933,1.933,0,0,1-.048-.436c-.012-.68.023-1.363.036-2.042q.01-.517.02-1.033a7.02,7.02,0,0,1,.063-.946,2.473,2.473,0,0,1,.781-1.462,4.75,4.75,0,0,1,1.347-.828,8.124,8.124,0,0,1,3.762-.757,4.5,4.5,0,0,1,2.951,1.312,3.013,3.013,0,0,1,.25.3c.019.026.078.123.074.047a.706.706,0,0,0-.147-.259,4.362,4.362,0,0,0-2.743-1.693,7.213,7.213,0,0,0-3.835.461,3.941,3.941,0,0,0-2.522,1.95,5.587,5.587,0,0,0-.22,1.93q-.021,1.054-.041,2.109a4.442,4.442,0,0,0,.027.932,1.851,1.851,0,0,0,.445.849c.19.213.438.363.631.574a1.363,1.363,0,0,1,.31.648,2.144,2.144,0,0,1,.048.419.575.575,0,0,0,.124.239c.012.018.109.139.109.112Z" transform="translate(-1618.18 -1182.614)" fill="#161615"/>
        <path id="Path_20" data-name="Path 20" d="M1623.7,1297.366a1.053,1.053,0,0,1-.218.884c-.192.3-.428.561-.6.869a2.834,2.834,0,0,0-.25,2.165c.11.371.287.719.385,1.094a2.6,2.6,0,0,1,0,1.185c-.081.4-.2.8-.253,1.2a5.875,5.875,0,0,0-.039,1.11,42.062,42.062,0,0,0,.887,4.428,7.923,7.923,0,0,1,.109,1.124,5.327,5.327,0,0,1-.015.539,1.169,1.169,0,0,1-.093.491c-.024.039-.033.038-.078.042a.467.467,0,0,1-.2-.036.894.894,0,0,1-.361-.272,1.5,1.5,0,0,1-.315-.894,2.827,2.827,0,0,1,.243-1.13c.151-.382.325-.757.5-1.129q.536-1.134,1.17-2.218.155-.265.315-.526a.116.116,0,0,0-.1-.177.3.3,0,0,0-.268.152q-.684,1.117-1.266,2.292-.288.583-.55,1.179a5.2,5.2,0,0,0-.414,1.22,1.614,1.614,0,0,0,.764,1.8.719.719,0,0,0,.963-.367,1.936,1.936,0,0,0,.091-.558c.013-.2.019-.391.014-.587a34.521,34.521,0,0,0-.9-4.647,6.214,6.214,0,0,1,.009-2.313,9.912,9.912,0,0,0,.25-1.258,2.754,2.754,0,0,0-.195-1.213,4.848,4.848,0,0,1-.344-1.133,2.608,2.608,0,0,1,.125-1.139,3.532,3.532,0,0,1,.55-.936,2.445,2.445,0,0,0,.5-.954,1,1,0,0,0-.04-.508c-.032-.1-.2-.05-.26-.017a.2.2,0,0,0-.119.233Z" transform="translate(-1621.929 -1287.641)" fill="#161615"/>
        <path id="Path_21" data-name="Path 21" d="M1626.91,1189.17a2.461,2.461,0,0,0-.471-1.628,4.525,4.525,0,0,1-.552-1.686,8.384,8.384,0,0,1,.02-1.83,13.108,13.108,0,0,1,.274-1.739,4,4,0,0,1,.667-1.509,3.316,3.316,0,0,1,1.321-.987,6.524,6.524,0,0,1,3.658-.476,4.468,4.468,0,0,1,2.748,1.577q.123.157.23.325c.114.178.506.092.36-.137a4.8,4.8,0,0,0-2.731-1.959,6.818,6.818,0,0,0-3.954.157,4.544,4.544,0,0,0-1.553.82,3.445,3.445,0,0,0-.976,1.444,7.96,7.96,0,0,0-.384,1.718,13.075,13.075,0,0,0-.147,1.893,5.213,5.213,0,0,0,.327,1.856,7.509,7.509,0,0,0,.416.823,2.688,2.688,0,0,1,.33.81,1.145,1.145,0,0,1,0,.408.2.2,0,0,0,.165.217c.081.023.234.01.254-.1Z" transform="translate(-1624.839 -1178.897)" fill="#161615"/>
      </g>
    </g>
    <g id="Group_6" data-name="Group 6" transform="translate(-1226.595 -1753.824)">
      <g id="Group_3" data-name="Group 3" transform="translate(1369.329 1778.66)">
        <path id="Path_22" data-name="Path 22" d="M1374.62,1824.886a5.919,5.919,0,0,0,.4,2.269,3.449,3.449,0,0,0,1.364,1.586,7.25,7.25,0,0,0,2.686.93,26.233,26.233,0,0,0,4.39.3,41.742,41.742,0,0,0,4.281-.219q2.127-.218,4.09-.547,1.876-.314,3.4-.6a.148.148,0,0,1,.172.115l.893,4.116a.149.149,0,0,1-.111.177q-1.822.418-3.921.76-2.182.356-4.472.561t-4.526.205a28.441,28.441,0,0,1-6.449-.629,11.76,11.76,0,0,1-4.308-1.845,7.2,7.2,0,0,1-2.413-3.007,11.691,11.691,0,0,1,0-8.312,7.3,7.3,0,0,1,2.413-3.021,11.468,11.468,0,0,1,4.308-1.845,29.046,29.046,0,0,1,6.449-.615q2.236,0,4.526.205t4.472.547q2.1.329,3.922.772a.149.149,0,0,1,.11.177l-.892,4.116a.148.148,0,0,1-.174.114q-1.527-.313-3.4-.613-1.963-.314-4.09-.533a41.846,41.846,0,0,0-4.281-.219,26.246,26.246,0,0,0-4.39.3,7.265,7.265,0,0,0-2.686.929,3.467,3.467,0,0,0-1.364,1.572A5.814,5.814,0,0,0,1374.62,1824.886Z" transform="translate(-1369.33 -1810.177)" fill="#040405"/>
        <path id="Path_23" data-name="Path 23" d="M1620.319,1817.392l-.064.7a.148.148,0,0,1-.022.066l-11.117,17.644a.149.149,0,0,1-.126.069h-6.023a.149.149,0,0,1-.125-.23l12.021-18.349a.149.149,0,0,1,.124-.067h5.183A.149.149,0,0,1,1620.319,1817.392Zm7.992,14.793h-19.39a.149.149,0,0,1-.149-.149v-3.393a.149.149,0,0,1,.149-.149h19.39a.149.149,0,0,1,.149.149v3.393A.149.149,0,0,1,1628.311,1832.185Zm-.631,3.621-11.115-17.64a.149.149,0,0,1-.023-.075l-.021-.708a.149.149,0,0,1,.149-.153h5.22a.149.149,0,0,1,.125.068l11.994,18.348a.149.149,0,0,1-.125.23h-6.078A.148.148,0,0,1,1627.68,1835.807Z" transform="translate(-1575.58 -1811.871)" fill="#040405"/>
        <path id="Path_24" data-name="Path 24" d="M1877.9,1835.876h-4.992a.149.149,0,0,1-.149-.149v-18.348a.149.149,0,0,1,.149-.149h24.435a.149.149,0,0,1,.149.149v4.241a.149.149,0,0,1-.149.149H1878.2a.149.149,0,0,0-.149.149v3.393a.149.149,0,0,0,.149.149h18.627a.149.149,0,0,1,.149.149v3.885a.149.149,0,0,1-.149.149H1878.2a.149.149,0,0,0-.149.149v5.936A.149.149,0,0,1,1877.9,1835.876Z" transform="translate(-1813.319 -1811.871)" fill="#040405"/>
        <path id="Path_25" data-name="Path 25" d="M2127.369,1802.665h-24.435a.149.149,0,0,1-.149-.149v-18.349a.149.149,0,0,1,.149-.149h24.435a.149.149,0,0,1,.149.149v3.885a.149.149,0,0,1-.149.149h-19.145a.149.149,0,0,0-.149.149v3.038a.149.149,0,0,0,.149.149h18.626a.149.149,0,0,1,.149.149v3.12a.149.149,0,0,1-.149.149h-18.626a.149.149,0,0,0-.149.149v3.229a.149.149,0,0,0,.149.149h19.145a.149.149,0,0,1,.149.149v3.885A.149.149,0,0,1,2127.369,1802.665Zm-9.955-24h5.653a.149.149,0,0,1,.094.264l-4.628,3.8a.15.15,0,0,1-.095.034h-4.363a.149.149,0,0,1-.112-.247l3.338-3.8A.149.149,0,0,1,2117.415,1778.66Z" transform="translate(-2016.184 -1778.66)" fill="#040405"/>
      </g>
      <g id="Group_4" data-name="Group 4" transform="translate(1369.934 1806.127)">
        <path id="Path_26" data-name="Path 26" d="M1373.684,2029.238V2017.36a.149.149,0,0,1,.149-.149h11.14a7.164,7.164,0,0,1,1.905.223,3.358,3.358,0,0,1,1.309.661,2.6,2.6,0,0,1,.748,1.089,4.408,4.408,0,0,1,.24,1.526,3.965,3.965,0,0,1-.436,1.946,2.659,2.659,0,0,1-1.362,1.169,6.348,6.348,0,0,1-2.4.384h-10.606a.149.149,0,0,0-.149.149v4.88a.149.149,0,0,1-.149.149h-.237A.149.149,0,0,1,1373.684,2029.238Zm11.378-11.527h-10.7a.149.149,0,0,0-.149.149v5.7a.149.149,0,0,0,.149.149h10.7a4.249,4.249,0,0,0,2.742-.705,3.563,3.563,0,0,0,0-4.588A4.252,4.252,0,0,0,1385.062,2017.711Z" transform="translate(-1373.684 -2017.033)" fill="#040405"/>
        <path id="Path_27" data-name="Path 27" d="M1525.941,2029.387h-.237a.149.149,0,0,1-.149-.149V2017.36a.149.149,0,0,1,.149-.149h.237a.149.149,0,0,1,.149.149v11.878A.149.149,0,0,1,1525.941,2029.387Z" transform="translate(-1504.455 -2017.033)" fill="#040405"/>
        <path id="Path_28" data-name="Path 28" d="M1576.222,2028.887h14.357a.149.149,0,0,1,.149.149v.2a.149.149,0,0,1-.149.149h-14.891a.149.149,0,0,1-.149-.149V2017.36a.149.149,0,0,1,.149-.149h.237a.149.149,0,0,1,.149.149v11.378A.149.149,0,0,0,1576.222,2028.887Z" transform="translate(-1551.378 -2017.033)" fill="#040405"/>
        <path id="Path_29" data-name="Path 29" d="M1727.366,2017.278l0,.007a.148.148,0,0,1,0,.171l-8.849,11.871a.149.149,0,0,1-.119.06h-.288a.149.149,0,0,1-.119-.238l8.842-11.878a.148.148,0,0,1,.119-.06h.291A.149.149,0,0,1,1727.366,2017.278Zm6.128,8.86h-12.576a.149.149,0,0,1-.149-.149v-.2a.149.149,0,0,1,.149-.149h12.576a.149.149,0,0,1,.149.149v.2A.149.149,0,0,1,1733.494,2026.138Zm2.419,3.189-8.854-11.878a.149.149,0,0,1-.011-.161h0a.149.149,0,0,1,.13-.076h.283a.148.148,0,0,1,.119.06l8.842,11.878a.149.149,0,0,1-.119.238h-.27A.148.148,0,0,1,1735.913,2029.327Z" transform="translate(-1676.957 -2017.033)" fill="#040405"/>
        <path id="Path_30" data-name="Path 30" d="M1872.24,2017.711h-7.163a.149.149,0,0,1-.149-.149v-.2a.149.149,0,0,1,.149-.149h15.158a.149.149,0,0,1,.149.149v.2a.149.149,0,0,1-.149.149h-7.163a.149.149,0,0,0-.149.149v11.378a.149.149,0,0,1-.149.149h-.237a.149.149,0,0,1-.149-.149V2017.86A.149.149,0,0,0,1872.24,2017.711Z" transform="translate(-1806.152 -2017.033)" fill="#040405"/>
        <path id="Path_31" data-name="Path 31" d="M2032.223,2029.387h-14.891a.149.149,0,0,1-.149-.149V2017.36a.149.149,0,0,1,.149-.149h14.891a.149.149,0,0,1,.149.149v.2a.149.149,0,0,1-.149.149h-14.357a.149.149,0,0,0-.149.149v4.862a.149.149,0,0,0,.149.149h14a.149.149,0,0,1,.149.149v.2a.149.149,0,0,1-.149.149h-14a.149.149,0,0,0-.149.149v5.219a.149.149,0,0,0,.149.149h14.357a.149.149,0,0,1,.149.149v.2A.149.149,0,0,1,2032.223,2029.387Z" transform="translate(-1940.16 -2017.033)" fill="#040405"/>
        <path id="Path_32" data-name="Path 32" d="M2184.005,2025.317a2.912,2.912,0,0,1-.338,1.455,2.429,2.429,0,0,1-1.157.973,7.677,7.677,0,0,1-2.217.544,30.277,30.277,0,0,1-3.535.17q-1.247,0-2.68-.1t-2.769-.276q-1.241-.166-2.189-.347a.148.148,0,0,1-.117-.172l.037-.205a.148.148,0,0,1,.175-.12q.713.143,1.615.264,1,.134,2.074.232t2.083.161q1.006.063,1.772.063a31.272,31.272,0,0,0,3.437-.152,7.081,7.081,0,0,0,2.03-.473,1.971,1.971,0,0,0,.979-.821,3.035,3.035,0,0,0-.116-2.723,2.169,2.169,0,0,0-1.139-.741,10.5,10.5,0,0,0-1.861-.357l-7.158-.839a16.34,16.34,0,0,1-2.11-.384,3.061,3.061,0,0,1-1.478-.8,2.313,2.313,0,0,1-.543-1.669,2.56,2.56,0,0,1,.624-1.8,3.853,3.853,0,0,1,2.137-.973,22.905,22.905,0,0,1,4.167-.295q.943,0,1.985.062t2.092.161q1.05.1,2,.232.864.122,1.56.265a.148.148,0,0,1,.115.172l-.037.208a.148.148,0,0,1-.175.12q-.713-.143-1.615-.264-1-.134-2.074-.232t-2.074-.16q-1-.063-1.78-.062a29.712,29.712,0,0,0-3.232.143,6.657,6.657,0,0,0-1.94.455,1.951,1.951,0,0,0-.953.8,2.416,2.416,0,0,0-.267,1.169,1.906,1.906,0,0,0,.427,1.339,2.443,2.443,0,0,0,1.229.67,16,16,0,0,0,1.923.348l6.873.8q.891.107,1.665.25a4.473,4.473,0,0,1,1.344.455,2.218,2.218,0,0,1,.89.893A3.234,3.234,0,0,1,2184.005,2025.317Z" transform="translate(-2073.631 -2015.927)" fill="#040405"/>
      </g>
    </g>
  </g>
</svg>
