<svg xmlns="http://www.w3.org/2000/svg" width="110" height="170" viewBox="0 0 110 170"><g transform="translate(-203 -1949)"><g transform="translate(-1059 1043)"><circle cx="2.5" cy="2.5" r="2.5" transform="translate(1262 906)" fill="#2d4f4e"/><circle cx="2.5" cy="2.5" r="2.5" transform="translate(1262 921)" fill="#2d4f4e"/><circle cx="2.5" cy="2.5" r="2.5" transform="translate(1262 936)" fill="#2d4f4e"/><circle cx="2.5" cy="2.5" r="2.5" transform="translate(1262 951)" fill="#2d4f4e"/><circle cx="2.5" cy="2.5" r="2.5" transform="translate(1277 906)" fill="#2d4f4e"/><circle cx="2.5" cy="2.5" r="2.5" transform="translate(1277 921)" fill="#2d4f4e"/><circle cx="2.5" cy="2.5" r="2.5" transform="translate(1277 936)" fill="#2d4f4e"/><circle cx="2.5" cy="2.5" r="2.5" transform="translate(1277 951)" fill="#2d4f4e"/><circle cx="2.5" cy="2.5" r="2.5" transform="translate(1292 906)" fill="#2d4f4e"/><circle cx="2.5" cy="2.5" r="2.5" transform="translate(1292 921)" fill="#2d4f4e"/><circle cx="2.5" cy="2.5" r="2.5" transform="translate(1292 936)" fill="#2d4f4e"/><circle cx="2.5" cy="2.5" r="2.5" transform="translate(1292 951)" fill="#2d4f4e"/><circle cx="2.5" cy="2.5" r="2.5" transform="translate(1307 906)" fill="#2d4f4e"/><circle cx="2.5" cy="2.5" r="2.5" transform="translate(1307 921)" fill="#2d4f4e"/><circle cx="2.5" cy="2.5" r="2.5" transform="translate(1307 936)" fill="#2d4f4e"/><circle cx="2.5" cy="2.5" r="2.5" transform="translate(1307 951)" fill="#2d4f4e"/></g><g transform="translate(-999 1043)"><circle cx="2.5" cy="2.5" r="2.5" transform="translate(1262 906)" fill="#2d4f4e"/><circle cx="2.5" cy="2.5" r="2.5" transform="translate(1262 921)" fill="#2d4f4e"/><circle cx="2.5" cy="2.5" r="2.5" transform="translate(1262 936)" fill="#2d4f4e"/><circle cx="2.5" cy="2.5" r="2.5" transform="translate(1262 951)" fill="#2d4f4e"/><circle cx="2.5" cy="2.5" r="2.5" transform="translate(1277 906)" fill="#2d4f4e"/><circle cx="2.5" cy="2.5" r="2.5" transform="translate(1277 921)" fill="#2d4f4e"/><circle cx="2.5" cy="2.5" r="2.5" transform="translate(1277 936)" fill="#2d4f4e"/><circle cx="2.5" cy="2.5" r="2.5" transform="translate(1277 951)" fill="#2d4f4e"/><circle cx="2.5" cy="2.5" r="2.5" transform="translate(1292 906)" fill="#2d4f4e"/><circle cx="2.5" cy="2.5" r="2.5" transform="translate(1292 921)" fill="#2d4f4e"/><circle cx="2.5" cy="2.5" r="2.5" transform="translate(1292 936)" fill="#2d4f4e"/><circle cx="2.5" cy="2.5" r="2.5" transform="translate(1292 951)" fill="#2d4f4e"/><circle cx="2.5" cy="2.5" r="2.5" transform="translate(1307 906)" fill="#2d4f4e"/><circle cx="2.5" cy="2.5" r="2.5" transform="translate(1307 921)" fill="#2d4f4e"/><circle cx="2.5" cy="2.5" r="2.5" transform="translate(1307 936)" fill="#2d4f4e"/><circle cx="2.5" cy="2.5" r="2.5" transform="translate(1307 951)" fill="#2d4f4e"/></g><g transform="translate(-1059 1103)"><circle cx="2.5" cy="2.5" r="2.5" transform="translate(1262 906)" fill="#2d4f4e"/><circle cx="2.5" cy="2.5" r="2.5" transform="translate(1262 921)" fill="#2d4f4e"/><circle cx="2.5" cy="2.5" r="2.5" transform="translate(1262 936)" fill="#2d4f4e"/><circle cx="2.5" cy="2.5" r="2.5" transform="translate(1262 951)" fill="#2d4f4e"/><circle cx="2.5" cy="2.5" r="2.5" transform="translate(1277 906)" fill="#2d4f4e"/><circle cx="2.5" cy="2.5" r="2.5" transform="translate(1277 921)" fill="#2d4f4e"/><circle cx="2.5" cy="2.5" r="2.5" transform="translate(1277 936)" fill="#2d4f4e"/><circle cx="2.5" cy="2.5" r="2.5" transform="translate(1277 951)" fill="#2d4f4e"/><circle cx="2.5" cy="2.5" r="2.5" transform="translate(1292 906)" fill="#2d4f4e"/><circle cx="2.5" cy="2.5" r="2.5" transform="translate(1292 921)" fill="#2d4f4e"/><circle cx="2.5" cy="2.5" r="2.5" transform="translate(1292 936)" fill="#2d4f4e"/><circle cx="2.5" cy="2.5" r="2.5" transform="translate(1292 951)" fill="#2d4f4e"/><circle cx="2.5" cy="2.5" r="2.5" transform="translate(1307 906)" fill="#2d4f4e"/><circle cx="2.5" cy="2.5" r="2.5" transform="translate(1307 921)" fill="#2d4f4e"/><circle cx="2.5" cy="2.5" r="2.5" transform="translate(1307 936)" fill="#2d4f4e"/><circle cx="2.5" cy="2.5" r="2.5" transform="translate(1307 951)" fill="#2d4f4e"/></g><g transform="translate(-1059 1163)"><circle cx="2.5" cy="2.5" r="2.5" transform="translate(1262 906)" fill="#2d4f4e"/><circle cx="2.5" cy="2.5" r="2.5" transform="translate(1262 921)" fill="#2d4f4e"/><circle cx="2.5" cy="2.5" r="2.5" transform="translate(1262 936)" fill="#2d4f4e"/><circle cx="2.5" cy="2.5" r="2.5" transform="translate(1262 951)" fill="#2d4f4e"/><circle cx="2.5" cy="2.5" r="2.5" transform="translate(1277 906)" fill="#2d4f4e"/><circle cx="2.5" cy="2.5" r="2.5" transform="translate(1277 921)" fill="#2d4f4e"/><circle cx="2.5" cy="2.5" r="2.5" transform="translate(1277 936)" fill="#2d4f4e"/><circle cx="2.5" cy="2.5" r="2.5" transform="translate(1277 951)" fill="#2d4f4e"/><circle cx="2.5" cy="2.5" r="2.5" transform="translate(1292 906)" fill="#2d4f4e"/><circle cx="2.5" cy="2.5" r="2.5" transform="translate(1292 921)" fill="#2d4f4e"/><circle cx="2.5" cy="2.5" r="2.5" transform="translate(1292 936)" fill="#2d4f4e"/><circle cx="2.5" cy="2.5" r="2.5" transform="translate(1292 951)" fill="#2d4f4e"/><circle cx="2.5" cy="2.5" r="2.5" transform="translate(1307 906)" fill="#2d4f4e"/><circle cx="2.5" cy="2.5" r="2.5" transform="translate(1307 921)" fill="#2d4f4e"/><circle cx="2.5" cy="2.5" r="2.5" transform="translate(1307 936)" fill="#2d4f4e"/><circle cx="2.5" cy="2.5" r="2.5" transform="translate(1307 951)" fill="#2d4f4e"/></g><g transform="translate(-999 1103)"><circle cx="2.5" cy="2.5" r="2.5" transform="translate(1262 906)" fill="#2d4f4e"/><circle cx="2.5" cy="2.5" r="2.5" transform="translate(1262 921)" fill="#2d4f4e"/><circle cx="2.5" cy="2.5" r="2.5" transform="translate(1262 936)" fill="#2d4f4e"/><circle cx="2.5" cy="2.5" r="2.5" transform="translate(1262 951)" fill="#2d4f4e"/><circle cx="2.5" cy="2.5" r="2.5" transform="translate(1277 906)" fill="#2d4f4e"/><circle cx="2.5" cy="2.5" r="2.5" transform="translate(1277 921)" fill="#2d4f4e"/><circle cx="2.5" cy="2.5" r="2.5" transform="translate(1277 936)" fill="#2d4f4e"/><circle cx="2.5" cy="2.5" r="2.5" transform="translate(1277 951)" fill="#2d4f4e"/><circle cx="2.5" cy="2.5" r="2.5" transform="translate(1292 906)" fill="#2d4f4e"/><circle cx="2.5" cy="2.5" r="2.5" transform="translate(1292 921)" fill="#2d4f4e"/><circle cx="2.5" cy="2.5" r="2.5" transform="translate(1292 936)" fill="#2d4f4e"/><circle cx="2.5" cy="2.5" r="2.5" transform="translate(1292 951)" fill="#2d4f4e"/><circle cx="2.5" cy="2.5" r="2.5" transform="translate(1307 906)" fill="#2d4f4e"/><circle cx="2.5" cy="2.5" r="2.5" transform="translate(1307 921)" fill="#2d4f4e"/><circle cx="2.5" cy="2.5" r="2.5" transform="translate(1307 936)" fill="#2d4f4e"/><circle cx="2.5" cy="2.5" r="2.5" transform="translate(1307 951)" fill="#2d4f4e"/></g><g transform="translate(-999 1163)"><circle cx="2.5" cy="2.5" r="2.5" transform="translate(1262 906)" fill="#2d4f4e"/><circle cx="2.5" cy="2.5" r="2.5" transform="translate(1262 921)" fill="#2d4f4e"/><circle cx="2.5" cy="2.5" r="2.5" transform="translate(1262 936)" fill="#2d4f4e"/><circle cx="2.5" cy="2.5" r="2.5" transform="translate(1262 951)" fill="#2d4f4e"/><circle cx="2.5" cy="2.5" r="2.5" transform="translate(1277 906)" fill="#2d4f4e"/><circle cx="2.5" cy="2.5" r="2.5" transform="translate(1277 921)" fill="#2d4f4e"/><circle cx="2.5" cy="2.5" r="2.5" transform="translate(1277 936)" fill="#2d4f4e"/><circle cx="2.5" cy="2.5" r="2.5" transform="translate(1277 951)" fill="#2d4f4e"/><circle cx="2.5" cy="2.5" r="2.5" transform="translate(1292 906)" fill="#2d4f4e"/><circle cx="2.5" cy="2.5" r="2.5" transform="translate(1292 921)" fill="#2d4f4e"/><circle cx="2.5" cy="2.5" r="2.5" transform="translate(1292 936)" fill="#2d4f4e"/><circle cx="2.5" cy="2.5" r="2.5" transform="translate(1292 951)" fill="#2d4f4e"/><circle cx="2.5" cy="2.5" r="2.5" transform="translate(1307 906)" fill="#2d4f4e"/><circle cx="2.5" cy="2.5" r="2.5" transform="translate(1307 921)" fill="#2d4f4e"/><circle cx="2.5" cy="2.5" r="2.5" transform="translate(1307 936)" fill="#2d4f4e"/><circle cx="2.5" cy="2.5" r="2.5" transform="translate(1307 951)" fill="#2d4f4e"/></g></g></svg>