<svg xmlns="http://www.w3.org/2000/svg" width="110" height="170" viewBox="0 0 110 170"><g transform="translate(-1245 -2925)"><g transform="translate(-17 2019)"><circle cx="2.5" cy="2.5" r="2.5" transform="translate(1262 906)" fill="#c09990"/><circle cx="2.5" cy="2.5" r="2.5" transform="translate(1262 921)" fill="#c09990"/><circle cx="2.5" cy="2.5" r="2.5" transform="translate(1262 936)" fill="#c09990"/><circle cx="2.5" cy="2.5" r="2.5" transform="translate(1262 951)" fill="#c09990"/><circle cx="2.5" cy="2.5" r="2.5" transform="translate(1277 906)" fill="#c09990"/><circle cx="2.5" cy="2.5" r="2.5" transform="translate(1277 921)" fill="#c09990"/><circle cx="2.5" cy="2.5" r="2.5" transform="translate(1277 936)" fill="#c09990"/><circle cx="2.5" cy="2.5" r="2.5" transform="translate(1277 951)" fill="#c09990"/><circle cx="2.5" cy="2.5" r="2.5" transform="translate(1292 906)" fill="#c09990"/><circle cx="2.5" cy="2.5" r="2.5" transform="translate(1292 921)" fill="#c09990"/><circle cx="2.5" cy="2.5" r="2.5" transform="translate(1292 936)" fill="#c09990"/><circle cx="2.5" cy="2.5" r="2.5" transform="translate(1292 951)" fill="#c09990"/><circle cx="2.5" cy="2.5" r="2.5" transform="translate(1307 906)" fill="#c09990"/><circle cx="2.5" cy="2.5" r="2.5" transform="translate(1307 921)" fill="#c09990"/><circle cx="2.5" cy="2.5" r="2.5" transform="translate(1307 936)" fill="#c09990"/><circle cx="2.5" cy="2.5" r="2.5" transform="translate(1307 951)" fill="#c09990"/></g><g transform="translate(43 2019)"><circle cx="2.5" cy="2.5" r="2.5" transform="translate(1262 906)" fill="#c09990"/><circle cx="2.5" cy="2.5" r="2.5" transform="translate(1262 921)" fill="#c09990"/><circle cx="2.5" cy="2.5" r="2.5" transform="translate(1262 936)" fill="#c09990"/><circle cx="2.5" cy="2.5" r="2.5" transform="translate(1262 951)" fill="#c09990"/><circle cx="2.5" cy="2.5" r="2.5" transform="translate(1277 906)" fill="#c09990"/><circle cx="2.5" cy="2.5" r="2.5" transform="translate(1277 921)" fill="#c09990"/><circle cx="2.5" cy="2.5" r="2.5" transform="translate(1277 936)" fill="#c09990"/><circle cx="2.5" cy="2.5" r="2.5" transform="translate(1277 951)" fill="#c09990"/><circle cx="2.5" cy="2.5" r="2.5" transform="translate(1292 906)" fill="#c09990"/><circle cx="2.5" cy="2.5" r="2.5" transform="translate(1292 921)" fill="#c09990"/><circle cx="2.5" cy="2.5" r="2.5" transform="translate(1292 936)" fill="#c09990"/><circle cx="2.5" cy="2.5" r="2.5" transform="translate(1292 951)" fill="#c09990"/><circle cx="2.5" cy="2.5" r="2.5" transform="translate(1307 906)" fill="#c09990"/><circle cx="2.5" cy="2.5" r="2.5" transform="translate(1307 921)" fill="#c09990"/><circle cx="2.5" cy="2.5" r="2.5" transform="translate(1307 936)" fill="#c09990"/><circle cx="2.5" cy="2.5" r="2.5" transform="translate(1307 951)" fill="#c09990"/></g><g transform="translate(-17 2079)"><circle cx="2.5" cy="2.5" r="2.5" transform="translate(1262 906)" fill="#c09990"/><circle cx="2.5" cy="2.5" r="2.5" transform="translate(1262 921)" fill="#c09990"/><circle cx="2.5" cy="2.5" r="2.5" transform="translate(1262 936)" fill="#c09990"/><circle cx="2.5" cy="2.5" r="2.5" transform="translate(1262 951)" fill="#c09990"/><circle cx="2.5" cy="2.5" r="2.5" transform="translate(1277 906)" fill="#c09990"/><circle cx="2.5" cy="2.5" r="2.5" transform="translate(1277 921)" fill="#c09990"/><circle cx="2.5" cy="2.5" r="2.5" transform="translate(1277 936)" fill="#c09990"/><circle cx="2.5" cy="2.5" r="2.5" transform="translate(1277 951)" fill="#c09990"/><circle cx="2.5" cy="2.5" r="2.5" transform="translate(1292 906)" fill="#c09990"/><circle cx="2.5" cy="2.5" r="2.5" transform="translate(1292 921)" fill="#c09990"/><circle cx="2.5" cy="2.5" r="2.5" transform="translate(1292 936)" fill="#c09990"/><circle cx="2.5" cy="2.5" r="2.5" transform="translate(1292 951)" fill="#c09990"/><circle cx="2.5" cy="2.5" r="2.5" transform="translate(1307 906)" fill="#c09990"/><circle cx="2.5" cy="2.5" r="2.5" transform="translate(1307 921)" fill="#c09990"/><circle cx="2.5" cy="2.5" r="2.5" transform="translate(1307 936)" fill="#c09990"/><circle cx="2.5" cy="2.5" r="2.5" transform="translate(1307 951)" fill="#c09990"/></g><g transform="translate(43 2079)"><circle cx="2.5" cy="2.5" r="2.5" transform="translate(1262 906)" fill="#c09990"/><circle cx="2.5" cy="2.5" r="2.5" transform="translate(1262 921)" fill="#c09990"/><circle cx="2.5" cy="2.5" r="2.5" transform="translate(1262 936)" fill="#c09990"/><circle cx="2.5" cy="2.5" r="2.5" transform="translate(1262 951)" fill="#c09990"/><circle cx="2.5" cy="2.5" r="2.5" transform="translate(1277 906)" fill="#c09990"/><circle cx="2.5" cy="2.5" r="2.5" transform="translate(1277 921)" fill="#c09990"/><circle cx="2.5" cy="2.5" r="2.5" transform="translate(1277 936)" fill="#c09990"/><circle cx="2.5" cy="2.5" r="2.5" transform="translate(1277 951)" fill="#c09990"/><circle cx="2.5" cy="2.5" r="2.5" transform="translate(1292 906)" fill="#c09990"/><circle cx="2.5" cy="2.5" r="2.5" transform="translate(1292 921)" fill="#c09990"/><circle cx="2.5" cy="2.5" r="2.5" transform="translate(1292 936)" fill="#c09990"/><circle cx="2.5" cy="2.5" r="2.5" transform="translate(1292 951)" fill="#c09990"/><circle cx="2.5" cy="2.5" r="2.5" transform="translate(1307 906)" fill="#c09990"/><circle cx="2.5" cy="2.5" r="2.5" transform="translate(1307 921)" fill="#c09990"/><circle cx="2.5" cy="2.5" r="2.5" transform="translate(1307 936)" fill="#c09990"/><circle cx="2.5" cy="2.5" r="2.5" transform="translate(1307 951)" fill="#c09990"/></g><g transform="translate(-17 2139)"><circle cx="2.5" cy="2.5" r="2.5" transform="translate(1262 906)" fill="#c09990"/><circle cx="2.5" cy="2.5" r="2.5" transform="translate(1262 921)" fill="#c09990"/><circle cx="2.5" cy="2.5" r="2.5" transform="translate(1262 936)" fill="#c09990"/><circle cx="2.5" cy="2.5" r="2.5" transform="translate(1262 951)" fill="#c09990"/><circle cx="2.5" cy="2.5" r="2.5" transform="translate(1277 906)" fill="#c09990"/><circle cx="2.5" cy="2.5" r="2.5" transform="translate(1277 921)" fill="#c09990"/><circle cx="2.5" cy="2.5" r="2.5" transform="translate(1277 936)" fill="#c09990"/><circle cx="2.5" cy="2.5" r="2.5" transform="translate(1277 951)" fill="#c09990"/><circle cx="2.5" cy="2.5" r="2.5" transform="translate(1292 906)" fill="#c09990"/><circle cx="2.5" cy="2.5" r="2.5" transform="translate(1292 921)" fill="#c09990"/><circle cx="2.5" cy="2.5" r="2.5" transform="translate(1292 936)" fill="#c09990"/><circle cx="2.5" cy="2.5" r="2.5" transform="translate(1292 951)" fill="#c09990"/><circle cx="2.5" cy="2.5" r="2.5" transform="translate(1307 906)" fill="#c09990"/><circle cx="2.5" cy="2.5" r="2.5" transform="translate(1307 921)" fill="#c09990"/><circle cx="2.5" cy="2.5" r="2.5" transform="translate(1307 936)" fill="#c09990"/><circle cx="2.5" cy="2.5" r="2.5" transform="translate(1307 951)" fill="#c09990"/></g><g transform="translate(43 2139)"><circle cx="2.5" cy="2.5" r="2.5" transform="translate(1262 906)" fill="#c09990"/><circle cx="2.5" cy="2.5" r="2.5" transform="translate(1262 921)" fill="#c09990"/><circle cx="2.5" cy="2.5" r="2.5" transform="translate(1262 936)" fill="#c09990"/><circle cx="2.5" cy="2.5" r="2.5" transform="translate(1262 951)" fill="#c09990"/><circle cx="2.5" cy="2.5" r="2.5" transform="translate(1277 906)" fill="#c09990"/><circle cx="2.5" cy="2.5" r="2.5" transform="translate(1277 921)" fill="#c09990"/><circle cx="2.5" cy="2.5" r="2.5" transform="translate(1277 936)" fill="#c09990"/><circle cx="2.5" cy="2.5" r="2.5" transform="translate(1277 951)" fill="#c09990"/><circle cx="2.5" cy="2.5" r="2.5" transform="translate(1292 906)" fill="#c09990"/><circle cx="2.5" cy="2.5" r="2.5" transform="translate(1292 921)" fill="#c09990"/><circle cx="2.5" cy="2.5" r="2.5" transform="translate(1292 936)" fill="#c09990"/><circle cx="2.5" cy="2.5" r="2.5" transform="translate(1292 951)" fill="#c09990"/><circle cx="2.5" cy="2.5" r="2.5" transform="translate(1307 906)" fill="#c09990"/><circle cx="2.5" cy="2.5" r="2.5" transform="translate(1307 921)" fill="#c09990"/><circle cx="2.5" cy="2.5" r="2.5" transform="translate(1307 936)" fill="#c09990"/><circle cx="2.5" cy="2.5" r="2.5" transform="translate(1307 951)" fill="#c09990"/></g></g></svg>