<svg xmlns="http://www.w3.org/2000/svg" width="110" height="170" viewBox="0 0 110 170">
  <g id="Group_22" data-name="Group 22" transform="translate(-203 -1949)">
    <g id="Group_14" data-name="Group 14" transform="translate(-1059 1043)">
      <circle id="Ellipse_1" data-name="Ellipse 1" cx="2.5" cy="2.5" r="2.5" transform="translate(1262 906)" fill="#2d4f4e"/>
      <circle id="Ellipse_5" data-name="Ellipse 5" cx="2.5" cy="2.5" r="2.5" transform="translate(1262 921)" fill="#2d4f4e"/>
      <circle id="Ellipse_9" data-name="Ellipse 9" cx="2.5" cy="2.5" r="2.5" transform="translate(1262 936)" fill="#2d4f4e"/>
      <circle id="Ellipse_13" data-name="Ellipse 13" cx="2.5" cy="2.5" r="2.5" transform="translate(1262 951)" fill="#2d4f4e"/>
      <circle id="Ellipse_2" data-name="Ellipse 2" cx="2.5" cy="2.5" r="2.5" transform="translate(1277 906)" fill="#2d4f4e"/>
      <circle id="Ellipse_6" data-name="Ellipse 6" cx="2.5" cy="2.5" r="2.5" transform="translate(1277 921)" fill="#2d4f4e"/>
      <circle id="Ellipse_10" data-name="Ellipse 10" cx="2.5" cy="2.5" r="2.5" transform="translate(1277 936)" fill="#2d4f4e"/>
      <circle id="Ellipse_14" data-name="Ellipse 14" cx="2.5" cy="2.5" r="2.5" transform="translate(1277 951)" fill="#2d4f4e"/>
      <circle id="Ellipse_3" data-name="Ellipse 3" cx="2.5" cy="2.5" r="2.5" transform="translate(1292 906)" fill="#2d4f4e"/>
      <circle id="Ellipse_7" data-name="Ellipse 7" cx="2.5" cy="2.5" r="2.5" transform="translate(1292 921)" fill="#2d4f4e"/>
      <circle id="Ellipse_11" data-name="Ellipse 11" cx="2.5" cy="2.5" r="2.5" transform="translate(1292 936)" fill="#2d4f4e"/>
      <circle id="Ellipse_15" data-name="Ellipse 15" cx="2.5" cy="2.5" r="2.5" transform="translate(1292 951)" fill="#2d4f4e"/>
      <circle id="Ellipse_4" data-name="Ellipse 4" cx="2.5" cy="2.5" r="2.5" transform="translate(1307 906)" fill="#2d4f4e"/>
      <circle id="Ellipse_8" data-name="Ellipse 8" cx="2.5" cy="2.5" r="2.5" transform="translate(1307 921)" fill="#2d4f4e"/>
      <circle id="Ellipse_12" data-name="Ellipse 12" cx="2.5" cy="2.5" r="2.5" transform="translate(1307 936)" fill="#2d4f4e"/>
      <circle id="Ellipse_16" data-name="Ellipse 16" cx="2.5" cy="2.5" r="2.5" transform="translate(1307 951)" fill="#2d4f4e"/>
    </g>
    <g id="Group_17" data-name="Group 17" transform="translate(-999 1043)">
      <circle id="Ellipse_1-2" data-name="Ellipse 1" cx="2.5" cy="2.5" r="2.5" transform="translate(1262 906)" fill="#2d4f4e"/>
      <circle id="Ellipse_5-2" data-name="Ellipse 5" cx="2.5" cy="2.5" r="2.5" transform="translate(1262 921)" fill="#2d4f4e"/>
      <circle id="Ellipse_9-2" data-name="Ellipse 9" cx="2.5" cy="2.5" r="2.5" transform="translate(1262 936)" fill="#2d4f4e"/>
      <circle id="Ellipse_13-2" data-name="Ellipse 13" cx="2.5" cy="2.5" r="2.5" transform="translate(1262 951)" fill="#2d4f4e"/>
      <circle id="Ellipse_2-2" data-name="Ellipse 2" cx="2.5" cy="2.5" r="2.5" transform="translate(1277 906)" fill="#2d4f4e"/>
      <circle id="Ellipse_6-2" data-name="Ellipse 6" cx="2.5" cy="2.5" r="2.5" transform="translate(1277 921)" fill="#2d4f4e"/>
      <circle id="Ellipse_10-2" data-name="Ellipse 10" cx="2.5" cy="2.5" r="2.5" transform="translate(1277 936)" fill="#2d4f4e"/>
      <circle id="Ellipse_14-2" data-name="Ellipse 14" cx="2.5" cy="2.5" r="2.5" transform="translate(1277 951)" fill="#2d4f4e"/>
      <circle id="Ellipse_3-2" data-name="Ellipse 3" cx="2.5" cy="2.5" r="2.5" transform="translate(1292 906)" fill="#2d4f4e"/>
      <circle id="Ellipse_7-2" data-name="Ellipse 7" cx="2.5" cy="2.5" r="2.5" transform="translate(1292 921)" fill="#2d4f4e"/>
      <circle id="Ellipse_11-2" data-name="Ellipse 11" cx="2.5" cy="2.5" r="2.5" transform="translate(1292 936)" fill="#2d4f4e"/>
      <circle id="Ellipse_15-2" data-name="Ellipse 15" cx="2.5" cy="2.5" r="2.5" transform="translate(1292 951)" fill="#2d4f4e"/>
      <circle id="Ellipse_4-2" data-name="Ellipse 4" cx="2.5" cy="2.5" r="2.5" transform="translate(1307 906)" fill="#2d4f4e"/>
      <circle id="Ellipse_8-2" data-name="Ellipse 8" cx="2.5" cy="2.5" r="2.5" transform="translate(1307 921)" fill="#2d4f4e"/>
      <circle id="Ellipse_12-2" data-name="Ellipse 12" cx="2.5" cy="2.5" r="2.5" transform="translate(1307 936)" fill="#2d4f4e"/>
      <circle id="Ellipse_16-2" data-name="Ellipse 16" cx="2.5" cy="2.5" r="2.5" transform="translate(1307 951)" fill="#2d4f4e"/>
    </g>
    <g id="Group_15" data-name="Group 15" transform="translate(-1059 1103)">
      <circle id="Ellipse_1-3" data-name="Ellipse 1" cx="2.5" cy="2.5" r="2.5" transform="translate(1262 906)" fill="#2d4f4e"/>
      <circle id="Ellipse_5-3" data-name="Ellipse 5" cx="2.5" cy="2.5" r="2.5" transform="translate(1262 921)" fill="#2d4f4e"/>
      <circle id="Ellipse_9-3" data-name="Ellipse 9" cx="2.5" cy="2.5" r="2.5" transform="translate(1262 936)" fill="#2d4f4e"/>
      <circle id="Ellipse_13-3" data-name="Ellipse 13" cx="2.5" cy="2.5" r="2.5" transform="translate(1262 951)" fill="#2d4f4e"/>
      <circle id="Ellipse_2-3" data-name="Ellipse 2" cx="2.5" cy="2.5" r="2.5" transform="translate(1277 906)" fill="#2d4f4e"/>
      <circle id="Ellipse_6-3" data-name="Ellipse 6" cx="2.5" cy="2.5" r="2.5" transform="translate(1277 921)" fill="#2d4f4e"/>
      <circle id="Ellipse_10-3" data-name="Ellipse 10" cx="2.5" cy="2.5" r="2.5" transform="translate(1277 936)" fill="#2d4f4e"/>
      <circle id="Ellipse_14-3" data-name="Ellipse 14" cx="2.5" cy="2.5" r="2.5" transform="translate(1277 951)" fill="#2d4f4e"/>
      <circle id="Ellipse_3-3" data-name="Ellipse 3" cx="2.5" cy="2.5" r="2.5" transform="translate(1292 906)" fill="#2d4f4e"/>
      <circle id="Ellipse_7-3" data-name="Ellipse 7" cx="2.5" cy="2.5" r="2.5" transform="translate(1292 921)" fill="#2d4f4e"/>
      <circle id="Ellipse_11-3" data-name="Ellipse 11" cx="2.5" cy="2.5" r="2.5" transform="translate(1292 936)" fill="#2d4f4e"/>
      <circle id="Ellipse_15-3" data-name="Ellipse 15" cx="2.5" cy="2.5" r="2.5" transform="translate(1292 951)" fill="#2d4f4e"/>
      <circle id="Ellipse_4-3" data-name="Ellipse 4" cx="2.5" cy="2.5" r="2.5" transform="translate(1307 906)" fill="#2d4f4e"/>
      <circle id="Ellipse_8-3" data-name="Ellipse 8" cx="2.5" cy="2.5" r="2.5" transform="translate(1307 921)" fill="#2d4f4e"/>
      <circle id="Ellipse_12-3" data-name="Ellipse 12" cx="2.5" cy="2.5" r="2.5" transform="translate(1307 936)" fill="#2d4f4e"/>
      <circle id="Ellipse_16-3" data-name="Ellipse 16" cx="2.5" cy="2.5" r="2.5" transform="translate(1307 951)" fill="#2d4f4e"/>
    </g>
    <g id="Group_18" data-name="Group 18" transform="translate(-1059 1163)">
      <circle id="Ellipse_1-4" data-name="Ellipse 1" cx="2.5" cy="2.5" r="2.5" transform="translate(1262 906)" fill="#2d4f4e"/>
      <circle id="Ellipse_5-4" data-name="Ellipse 5" cx="2.5" cy="2.5" r="2.5" transform="translate(1262 921)" fill="#2d4f4e"/>
      <circle id="Ellipse_9-4" data-name="Ellipse 9" cx="2.5" cy="2.5" r="2.5" transform="translate(1262 936)" fill="#2d4f4e"/>
      <circle id="Ellipse_13-4" data-name="Ellipse 13" cx="2.5" cy="2.5" r="2.5" transform="translate(1262 951)" fill="#2d4f4e"/>
      <circle id="Ellipse_2-4" data-name="Ellipse 2" cx="2.5" cy="2.5" r="2.5" transform="translate(1277 906)" fill="#2d4f4e"/>
      <circle id="Ellipse_6-4" data-name="Ellipse 6" cx="2.5" cy="2.5" r="2.5" transform="translate(1277 921)" fill="#2d4f4e"/>
      <circle id="Ellipse_10-4" data-name="Ellipse 10" cx="2.5" cy="2.5" r="2.5" transform="translate(1277 936)" fill="#2d4f4e"/>
      <circle id="Ellipse_14-4" data-name="Ellipse 14" cx="2.5" cy="2.5" r="2.5" transform="translate(1277 951)" fill="#2d4f4e"/>
      <circle id="Ellipse_3-4" data-name="Ellipse 3" cx="2.5" cy="2.5" r="2.5" transform="translate(1292 906)" fill="#2d4f4e"/>
      <circle id="Ellipse_7-4" data-name="Ellipse 7" cx="2.5" cy="2.5" r="2.5" transform="translate(1292 921)" fill="#2d4f4e"/>
      <circle id="Ellipse_11-4" data-name="Ellipse 11" cx="2.5" cy="2.5" r="2.5" transform="translate(1292 936)" fill="#2d4f4e"/>
      <circle id="Ellipse_15-4" data-name="Ellipse 15" cx="2.5" cy="2.5" r="2.5" transform="translate(1292 951)" fill="#2d4f4e"/>
      <circle id="Ellipse_4-4" data-name="Ellipse 4" cx="2.5" cy="2.5" r="2.5" transform="translate(1307 906)" fill="#2d4f4e"/>
      <circle id="Ellipse_8-4" data-name="Ellipse 8" cx="2.5" cy="2.5" r="2.5" transform="translate(1307 921)" fill="#2d4f4e"/>
      <circle id="Ellipse_12-4" data-name="Ellipse 12" cx="2.5" cy="2.5" r="2.5" transform="translate(1307 936)" fill="#2d4f4e"/>
      <circle id="Ellipse_16-4" data-name="Ellipse 16" cx="2.5" cy="2.5" r="2.5" transform="translate(1307 951)" fill="#2d4f4e"/>
    </g>
    <g id="Group_16" data-name="Group 16" transform="translate(-999 1103)">
      <circle id="Ellipse_1-5" data-name="Ellipse 1" cx="2.5" cy="2.5" r="2.5" transform="translate(1262 906)" fill="#2d4f4e"/>
      <circle id="Ellipse_5-5" data-name="Ellipse 5" cx="2.5" cy="2.5" r="2.5" transform="translate(1262 921)" fill="#2d4f4e"/>
      <circle id="Ellipse_9-5" data-name="Ellipse 9" cx="2.5" cy="2.5" r="2.5" transform="translate(1262 936)" fill="#2d4f4e"/>
      <circle id="Ellipse_13-5" data-name="Ellipse 13" cx="2.5" cy="2.5" r="2.5" transform="translate(1262 951)" fill="#2d4f4e"/>
      <circle id="Ellipse_2-5" data-name="Ellipse 2" cx="2.5" cy="2.5" r="2.5" transform="translate(1277 906)" fill="#2d4f4e"/>
      <circle id="Ellipse_6-5" data-name="Ellipse 6" cx="2.5" cy="2.5" r="2.5" transform="translate(1277 921)" fill="#2d4f4e"/>
      <circle id="Ellipse_10-5" data-name="Ellipse 10" cx="2.5" cy="2.5" r="2.5" transform="translate(1277 936)" fill="#2d4f4e"/>
      <circle id="Ellipse_14-5" data-name="Ellipse 14" cx="2.5" cy="2.5" r="2.5" transform="translate(1277 951)" fill="#2d4f4e"/>
      <circle id="Ellipse_3-5" data-name="Ellipse 3" cx="2.5" cy="2.5" r="2.5" transform="translate(1292 906)" fill="#2d4f4e"/>
      <circle id="Ellipse_7-5" data-name="Ellipse 7" cx="2.5" cy="2.5" r="2.5" transform="translate(1292 921)" fill="#2d4f4e"/>
      <circle id="Ellipse_11-5" data-name="Ellipse 11" cx="2.5" cy="2.5" r="2.5" transform="translate(1292 936)" fill="#2d4f4e"/>
      <circle id="Ellipse_15-5" data-name="Ellipse 15" cx="2.5" cy="2.5" r="2.5" transform="translate(1292 951)" fill="#2d4f4e"/>
      <circle id="Ellipse_4-5" data-name="Ellipse 4" cx="2.5" cy="2.5" r="2.5" transform="translate(1307 906)" fill="#2d4f4e"/>
      <circle id="Ellipse_8-5" data-name="Ellipse 8" cx="2.5" cy="2.5" r="2.5" transform="translate(1307 921)" fill="#2d4f4e"/>
      <circle id="Ellipse_12-5" data-name="Ellipse 12" cx="2.5" cy="2.5" r="2.5" transform="translate(1307 936)" fill="#2d4f4e"/>
      <circle id="Ellipse_16-5" data-name="Ellipse 16" cx="2.5" cy="2.5" r="2.5" transform="translate(1307 951)" fill="#2d4f4e"/>
    </g>
    <g id="Group_19" data-name="Group 19" transform="translate(-999 1163)">
      <circle id="Ellipse_1-6" data-name="Ellipse 1" cx="2.5" cy="2.5" r="2.5" transform="translate(1262 906)" fill="#2d4f4e"/>
      <circle id="Ellipse_5-6" data-name="Ellipse 5" cx="2.5" cy="2.5" r="2.5" transform="translate(1262 921)" fill="#2d4f4e"/>
      <circle id="Ellipse_9-6" data-name="Ellipse 9" cx="2.5" cy="2.5" r="2.5" transform="translate(1262 936)" fill="#2d4f4e"/>
      <circle id="Ellipse_13-6" data-name="Ellipse 13" cx="2.5" cy="2.5" r="2.5" transform="translate(1262 951)" fill="#2d4f4e"/>
      <circle id="Ellipse_2-6" data-name="Ellipse 2" cx="2.5" cy="2.5" r="2.5" transform="translate(1277 906)" fill="#2d4f4e"/>
      <circle id="Ellipse_6-6" data-name="Ellipse 6" cx="2.5" cy="2.5" r="2.5" transform="translate(1277 921)" fill="#2d4f4e"/>
      <circle id="Ellipse_10-6" data-name="Ellipse 10" cx="2.5" cy="2.5" r="2.5" transform="translate(1277 936)" fill="#2d4f4e"/>
      <circle id="Ellipse_14-6" data-name="Ellipse 14" cx="2.5" cy="2.5" r="2.5" transform="translate(1277 951)" fill="#2d4f4e"/>
      <circle id="Ellipse_3-6" data-name="Ellipse 3" cx="2.5" cy="2.5" r="2.5" transform="translate(1292 906)" fill="#2d4f4e"/>
      <circle id="Ellipse_7-6" data-name="Ellipse 7" cx="2.5" cy="2.5" r="2.5" transform="translate(1292 921)" fill="#2d4f4e"/>
      <circle id="Ellipse_11-6" data-name="Ellipse 11" cx="2.5" cy="2.5" r="2.5" transform="translate(1292 936)" fill="#2d4f4e"/>
      <circle id="Ellipse_15-6" data-name="Ellipse 15" cx="2.5" cy="2.5" r="2.5" transform="translate(1292 951)" fill="#2d4f4e"/>
      <circle id="Ellipse_4-6" data-name="Ellipse 4" cx="2.5" cy="2.5" r="2.5" transform="translate(1307 906)" fill="#2d4f4e"/>
      <circle id="Ellipse_8-6" data-name="Ellipse 8" cx="2.5" cy="2.5" r="2.5" transform="translate(1307 921)" fill="#2d4f4e"/>
      <circle id="Ellipse_12-6" data-name="Ellipse 12" cx="2.5" cy="2.5" r="2.5" transform="translate(1307 936)" fill="#2d4f4e"/>
      <circle id="Ellipse_16-6" data-name="Ellipse 16" cx="2.5" cy="2.5" r="2.5" transform="translate(1307 951)" fill="#2d4f4e"/>
    </g>
  </g>
</svg>
