<svg id="Group_12" data-name="Group 12" xmlns="http://www.w3.org/2000/svg" width="1524.311" height="816.788" viewBox="0 0 1524.311 816.788">
  <path id="Path_33" data-name="Path 33" d="M36.422,971.4c73.323,0,137.672-15.377,191.719-45.868,27.48-15.505,46.918-31.605,65.717-47.176,29.145-24.14,54.316-44.99,100.63-54.978,35.36-7.625,61.842-4.334,83.12-1.693,3.648.453,7.138.886,10.486,1.241,24.171,13.437,64.753,29.772,107.412,19.855,27.646-6.424,56.723-24.2,81.875-50.057,24.639-25.327,43.89-56.6,54.206-88.044,5.842-17.805,11.669-28.936,17.3-39.7,2.993-5.714,5.818-11.112,8.482-17.215,31.312-71.747,89.988-135.7,174.4-190.077,68.917-44.394,117.7-52.632,174.184-62.167,40.689-6.871,86.808-14.657,146.181-38.147,99.711-39.449,191.283-106.823,272.173-200.252l-2.9-2.512c-80.481,92.958-171.552,159.976-270.682,199.2-59,23.341-102.927,30.759-145.409,37.931-56.9,9.607-106.045,17.9-175.622,62.725-15.167,9.771-46.727,30.1-81.039,62.005-42.622,39.63-74.517,83.288-94.8,129.763-2.609,5.979-5.4,11.316-8.363,16.969-5.443,10.395-11.612,22.177-17.551,40.283C706.77,768.024,649.461,826.3,594.637,839.043c-37.182,8.642-72.874-3.313-96.887-15.35,13.55.592,24.621-1.494,34.534-11.353,17.953-17.854,12.671-41.194,4.676-76.523-7.344-32.451-16.483-72.836-12.668-127.813C527,569,534.844,548.139,543.146,526.056c8.766-23.316,17.831-47.425,20.7-94.452,3.812-62.439-6.714-111.54-11.772-135.135-1.159-5.4-2.271-10.59-2.627-13.493,4.6,5.3,15.622,24.4,25.74,53.4,10.1,28.962,21.79,74.711,20.1,128.186-1.227,38.854-9.08,64.4-17.394,91.451-9.9,32.217-20.141,65.53-22.16,125.55-1.3,38.627-3.715,110.526,28.948,124.5,23.955,10.245,54.869-14.358,65.028-22.445,54.583-43.446,90.828-133.5,94.592-235.018,1.8-48.468-4.225-96.083-17.418-137.7-14.518-45.8-36.851-82.864-66.377-110.173-13.915-12.87-56.258-52.021-112.557-49.681-49.563,2.063-84.354,35.118-97.451,47.561-31.014,29.467-55.377,73.47-70.452,127.252-14.4,51.388-19.529,108.141-14.823,164.123,8.563,101.85,48.013,183.494,108.235,223.995,1.846,1.242,3.984,2.632,6.388,4.115l-1.772-.219c-21.567-2.678-48.4-6.013-84.4,1.751-47.23,10.184-72.735,31.311-102.268,55.772-18.669,15.463-37.972,31.452-65.155,46.789-62.158,35.07-138.2,49.927-226,44.163L0,970.181Q18.552,971.4,36.422,971.4ZM548.18,277.755a2.523,2.523,0,0,0-.6.073c-3.251.8-2.4,4.749.746,19.444,5.023,23.43,15.474,72.184,11.695,134.1-2.835,46.45-11.8,70.285-20.464,93.335-8.4,22.353-16.342,43.466-19.088,83.034-3.855,55.538,5.744,97.953,12.753,128.924,7.714,34.082,12.809,56.6-3.639,72.956-10.861,10.8-23.218,11.344-40.3,9.574-5.52-3.1-10.14-6.022-13.668-8.394-59.254-39.85-98.091-120.451-106.555-221.135-9.855-117.221,23.154-230.374,84.094-288.272,12.811-12.172,46.843-44.507,94.968-46.51,54.738-2.274,96.166,36.062,109.788,48.662,55.487,51.321,86.353,142.875,82.57,244.913-3.724,100.431-39.416,189.39-93.148,232.158-26.064,20.747-46.631,28.125-61.13,21.921-30.249-12.938-27.89-83.131-26.622-120.84,2-59.511,12.165-92.576,21.993-124.553,8.392-27.3,16.319-53.089,17.56-92.457,3.059-96.976-38.029-177.4-48.525-185.9A4.041,4.041,0,0,0,548.18,277.755Z" transform="translate(0 -154.61)" fill="#c09990"/>
</svg>
