<?xml version="1.0" encoding="UTF-8"?>
<svg id="Vrstva_2" data-name="Vrstva 2" xmlns="http://www.w3.org/2000/svg" viewBox="0 0 2541.12 2588">
  <defs>
    <style>
      .cls-1 {
        fill: #2e2d2c;
        stroke-width: 0px;
      }
    </style>
  </defs>
  <g id="_ŽÓť_1" data-name="—ŽÓť_1">
    <g>
      <path class="cls-1" d="m317.65,542.54c5.03,4.29,11.43,6.65,18.03,6.65,8.15,0,15.86-3.55,21.15-9.75C587.08,269.61,922.38,114.86,1276.75,114.86c78.95,0,157.9,7.66,234.67,22.76,15.05,2.96,29.68-6.87,32.63-21.91,1.43-7.28-.06-14.69-4.19-20.86-4.14-6.16-10.43-10.35-17.71-11.78-80.29-15.79-162.85-23.8-245.39-23.8-94.56,0-188.85,10.49-280.24,31.17-88.93,20.13-175.86,50.06-258.39,88.97-81.02,38.21-158.27,85.28-229.59,139.92-70.8,54.23-136.06,116.15-193.98,184.02-4.82,5.65-7.15,12.83-6.56,20.23s4.02,14.13,9.67,18.95Z"/>
      <path class="cls-1" d="m2502.69,1013.1h0c-24.76-98.04-61.44-193.09-109.01-282.51-46.74-87.85-103.99-170.27-170.16-244.97-65.92-74.42-140.58-141.05-221.9-198.05-6.08-4.26-13.46-5.9-20.76-4.61-7.31,1.29-13.69,5.34-17.95,11.42-4.26,6.08-5.9,13.45-4.61,20.77,1.29,7.31,5.34,13.69,11.42,17.95,322.99,226.38,515.82,596.68,515.82,990.56,0,666.52-542.26,1208.78-1208.78,1208.78S67.97,1990.16,67.97,1323.64c0-35.33,1.54-70.99,4.58-105.99,1.33-15.27-10.02-28.77-25.28-30.09-7.4-.65-14.61,1.63-20.29,6.41-5.68,4.78-9.16,11.48-9.81,18.88-3.18,36.6-4.79,73.88-4.79,110.8,0,170.68,33.43,336.26,99.37,492.16,31.69,74.93,70.91,147.19,116.58,214.78,45.23,66.94,97.16,129.89,154.37,187.1,57.21,57.21,120.16,109.15,187.1,154.38,67.59,45.66,139.86,84.89,214.78,116.58,155.9,65.94,321.48,99.37,492.16,99.37s336.26-33.43,492.16-99.37c74.93-31.69,147.19-70.91,214.78-116.58,66.95-45.23,129.9-97.17,187.1-154.38,57.21-57.21,109.15-120.16,154.38-187.1,45.66-67.59,84.89-139.86,116.58-214.78,65.94-155.9,99.37-321.48,99.37-492.16,0-105.1-12.93-209.58-38.43-310.54Z"/>
      <path class="cls-1" d="m1240.75,230.13v123.2c0,15.33,12.47,27.79,27.79,27.79s27.79-12.47,27.79-27.79v-123.2c0-15.33-12.47-27.79-27.79-27.79s-27.79,12.47-27.79,27.79Z"/>
      <path class="cls-1" d="m1240.75,2294.86v123.2c0,15.32,12.47,27.79,27.79,27.79s27.79-12.47,27.79-27.79v-123.2c0-15.32-12.47-27.79-27.79-27.79s-27.79,12.47-27.79,27.79Z"/>
      <path class="cls-1" d="m325.57,1324.09c0-15.32-12.47-27.79-27.79-27.79h-123.2c-15.33,0-27.79,12.47-27.79,27.79s12.47,27.79,27.79,27.79h123.2c15.33,0,27.79-12.47,27.79-27.79Z"/>
      <path class="cls-1" d="m2211.52,1324.09c0,15.32,12.47,27.79,27.79,27.79h123.2c15.32,0,27.79-12.47,27.79-27.79s-12.47-27.79-27.79-27.79h-123.2c-15.32,0-27.79,12.47-27.79,27.79Z"/>
      <path class="cls-1" d="m2082.41,1816.67c1.92,7.17,6.52,13.17,12.95,16.88l106.69,61.6c4.22,2.44,9.02,3.73,13.88,3.73,9.91,0,19.14-5.33,24.09-13.9,3.71-6.43,4.7-13.92,2.78-21.09-1.92-7.17-6.52-13.17-12.95-16.88l-106.69-61.6c-6.43-3.71-13.92-4.7-21.09-2.78-7.17,1.92-13.17,6.52-16.88,12.95-3.71,6.43-4.7,13.92-2.78,21.09Z"/>
      <path class="cls-1" d="m697.5,2257.6c-3.71,6.43-4.7,13.92-2.78,21.09,1.92,7.17,6.52,13.17,12.95,16.88,4.22,2.44,9.02,3.73,13.88,3.73,9.91,0,19.14-5.33,24.09-13.9l61.6-106.69c3.71-6.43,4.7-13.92,2.78-21.09-1.92-7.17-6.52-13.17-12.95-16.88-6.43-3.71-13.92-4.7-21.09-2.78-7.17,1.92-13.17,6.52-16.88,12.95h0s-61.6,106.69-61.6,106.69Z"/>
      <path class="cls-1" d="m2202.05,753.04h0s-106.69,61.6-106.69,61.6c-6.43,3.71-11.03,9.71-12.95,16.88-1.92,7.17-.94,14.66,2.78,21.09,4.95,8.57,14.18,13.9,24.09,13.9,4.86,0,9.66-1.29,13.88-3.73l106.69-61.6c6.43-3.71,11.03-9.71,12.95-16.88,1.92-7.17.94-14.66-2.78-21.09-7.66-13.27-24.69-17.84-37.96-10.17Z"/>
      <path class="cls-1" d="m321.17,1898.87c4.86,0,9.66-1.29,13.88-3.73l106.69-61.6c6.43-3.71,11.03-9.7,12.95-16.88,1.92-7.17.94-14.66-2.78-21.09-3.71-6.43-9.71-11.03-16.88-12.95-7.17-1.92-14.66-.94-21.09,2.78l-106.69,61.6c-6.43,3.71-11.03,9.7-12.95,16.88-1.92,7.17-.94,14.66,2.78,21.09,4.95,8.57,14.18,13.9,24.09,13.9Z"/>
      <path class="cls-1" d="m1778,2150.9c-7.66-13.27-24.69-17.83-37.97-10.17-6.43,3.71-11.03,9.7-12.95,16.88-1.92,7.17-.94,14.66,2.78,21.09l61.6,106.69c4.95,8.57,14.18,13.9,24.09,13.9,4.86,0,9.66-1.29,13.88-3.73,6.43-3.71,11.03-9.7,12.95-16.88,1.92-7.17.94-14.66-2.78-21.09l-61.6-106.69Z"/>
      <path class="cls-1" d="m707.67,352.62s0,0,0,0c-13.27,7.66-17.84,24.69-10.17,37.97l61.6,106.69c4.95,8.57,14.18,13.9,24.09,13.9,4.86,0,9.66-1.29,13.88-3.73,6.43-3.71,11.03-9.71,12.95-16.88,1.92-7.17.94-14.66-2.78-21.09l-61.6-106.69c-7.66-13.27-24.69-17.83-37.97-10.17Z"/>
      <path class="cls-1" d="m44.92,1072.18s0,0,0,0l350.2,151.92c30.8,13.36,63.59,20.35,97.44,20.77,33.42.41,66.13-5.59,97.17-17.84,19.57-7.73,38.1-17.87,55.08-30.13,2.41-1.74,7.07-4.86,10.36-7.04l465.49,200.93-28.01,64.56c-10.74,24.76-11.95,52.02-3.39,76.77,8.86,25.6,26.99,45.45,51.06,55.89l34.21,14.84c11.63,5.04,24,7.57,36.48,7.57,11.83,0,23.75-2.27,35.24-6.8,25.43-10.04,46.47-30.67,57.71-56.59l28.25-65.11,87.16,37.62c24.02,10.42,50.67,10.86,75.03,1.24,24.36-9.62,43.52-28.15,53.94-52.17l15.17-34.96c10.41-23.99,10.84-50.63,1.21-75.01-9.63-24.38-28.14-43.54-52.11-53.94l-87-38.06,93.46-215.45c14.36-2.63,35.1-7.62,58.88-17.01.03-.01.05-.02.08-.03,52.96-20.93,124.27-65.24,163.44-157.5,25.94-61.11,72.11-244.94,101.47-435.38,15.45-100.2,23.81-188.41,24.19-255.09.25-44.11-2.69-78.62-8.99-105.5-6.55-27.96-16.77-47.72-31.23-60.41-16.82-14.76-47.54-27.63-78.77-15.3-21.07,8.32-37.62,26.08-49.21,52.79l-485.02,1118.08-465.68-200.2c-.02-5.74-.2-14.61-.98-20.09-12.61-87.99-68.77-161.61-150.2-196.93l-350.2-151.92c-18.29-7.93-38.57-8.27-57.11-.95-18.54,7.32-33.12,21.42-41.05,39.71-16.37,37.75,1.01,81.78,38.76,98.16l321.49,139.46c-3.72,8.79-8.05,18.77-11.93,27.5l-321.48-139.46c-18.29-7.93-38.57-8.27-57.11-.95,0,0,0,0,0,0-18.54,7.32-33.12,21.42-41.05,39.71-7.93,18.29-8.27,38.57-.95,57.11,7.32,18.54,21.42,33.12,39.71,41.05l321.48,139.46c-3.69,8.71-7.97,18.59-11.81,27.23l-321.48-139.46c-18.29-7.93-38.57-8.27-57.11-.95-18.54,7.32-33.12,21.42-41.05,39.71-16.37,37.75,1.01,81.78,38.76,98.16Zm37.28-85.94l345.95,150.07c9,3.89,27.09,4.87,37.79-16.14,1.22-2.39,2.82-5.72,4.76-9.92,3.41-7.38,7.84-17.32,12.46-27.99,4.42-10.21,8.47-19.81,11.39-27.03,1.69-4.19,2.93-7.38,3.78-9.76,7.91-22.01-5.18-34.47-14.15-38.35l-345.93-150.07c-4.67-2.02-8.27-5.75-10.14-10.48-1.87-4.73-1.78-9.91.24-14.59,2.02-4.67,5.75-8.27,10.48-10.14,4.73-1.87,9.91-1.78,14.58.24l345.94,150.07c11.17,4.83,27.75,3.53,37.73-16.03,1.2-2.34,2.76-5.61,4.66-9.71,3.34-7.21,7.7-16.98,12.26-27.51,4.57-10.53,8.72-20.37,11.68-27.7,1.69-4.16,3-7.53,3.9-10.02,7.98-22.11-5.1-34.6-14.08-38.5l-345.94-150.07c-4.66-2.02-8.25-5.74-10.13-10.49-1.87-4.74-1.79-9.92.23-14.58,2.02-4.67,5.75-8.27,10.48-10.14,4.73-1.87,9.91-1.78,14.58.24l350.2,151.92c63.6,27.59,107.46,85.1,117.31,153.84.55,3.87.32,16.16-.37,19.63-3.2,16.02,2.47,29.3,14.82,34.66l485.12,209.08-49.05,113.07-481.42-206.86c-14.73-6.82-29.21-3.04-39.7,10.35-1.07,1.29-7,6.8-9.37,8.51-56.49,40.8-131.23,48.95-195.04,21.27l-350.2-151.91c-4.66-2.02-8.25-5.75-10.13-10.49-1.87-4.74-1.79-9.92.23-14.58,0,0,0,0,0,0,2.02-4.67,5.75-8.27,10.48-10.14,4.73-1.87,9.91-1.78,14.58.24Zm1061.44,491.22L1749.93,79.85c5.35-12.34,11.97-20.59,18.64-23.22,1.89-.75,3.82-1.06,5.73-1.06,6.68,0,13.02,3.84,15.97,6.43,4.38,3.85,18.85,22.38,21.01,99.39,1.9,67.7-5.92,159.01-23.24,271.38-27.8,180.33-72.96,363.86-97.7,422.13-31.67,74.61-89.69,110.55-132.78,127.57-33.55,13.25-59.92,15.76-60.17,15.78-2.68.23-5.31.85-7.82,1.84-6.82,2.69-12.4,8.08-15.31,14.78l-221.25,510.02c-5.42,12.5-15.32,22.35-27.14,27.02-9.81,3.87-20.18,3.85-29.19-.06l-34.21-14.84c-9.62-4.17-16.95-12.36-20.66-23.07-4-11.56-3.34-24.52,1.85-36.49Zm346.83-121.82c21.49,9.32,31.38,34.38,22.06,55.87l-15.17,34.96c-4.51,10.41-12.81,18.44-23.37,22.6-10.55,4.17-22.1,3.98-32.52-.54l-87.15-37.62,49.16-113.32,86.95,38.04s.02,0,.02,0Z"/>
    </g>
  </g>
</svg>