<svg xmlns="http://www.w3.org/2000/svg" width="40" height="40.008" viewBox="0 0 40 40.008"><path d="M40.348,11.762a14.619,14.619,0,0,0-.93-4.854,10.249,10.249,0,0,0-5.854-5.854A14.656,14.656,0,0,0,28.71.125C26.569.024,25.889,0,20.457,0s-6.112.024-8.245.117a14.623,14.623,0,0,0-4.853.93A9.762,9.762,0,0,0,3.81,3.361,9.85,9.85,0,0,0,1.5,6.9a14.658,14.658,0,0,0-.93,4.853C.473,13.9.449,14.576.449,20.008s.024,6.112.117,8.245a14.618,14.618,0,0,0,.93,4.854A10.247,10.247,0,0,0,7.35,38.961a14.658,14.658,0,0,0,4.854.93c2.133.094,2.814.117,8.245.117s6.112-.023,8.245-.117a14.615,14.615,0,0,0,4.853-.93A10.233,10.233,0,0,0,39.4,33.107a14.668,14.668,0,0,0,.93-4.854c.094-2.134.117-2.814.117-8.245S40.441,13.9,40.348,11.762ZM36.745,28.1a10.966,10.966,0,0,1-.688,3.712,6.637,6.637,0,0,1-3.8,3.8,11,11,0,0,1-3.712.688c-2.11.094-2.743.117-8.081.117s-5.979-.023-8.081-.117a10.96,10.96,0,0,1-3.712-.688,6.156,6.156,0,0,1-2.3-1.493,6.22,6.22,0,0,1-1.493-2.3A11.006,11.006,0,0,1,4.193,28.1c-.094-2.11-.117-2.743-.117-8.081s.023-5.979.117-8.081A10.96,10.96,0,0,1,4.881,8.23a6.081,6.081,0,0,1,1.5-2.3,6.21,6.21,0,0,1,2.3-1.493,11.012,11.012,0,0,1,3.712-.688c2.11-.094,2.743-.117,8.081-.117s5.979.024,8.081.117a10.966,10.966,0,0,1,3.712.688,6.152,6.152,0,0,1,2.3,1.493,6.219,6.219,0,0,1,1.493,2.3,11.01,11.01,0,0,1,.688,3.712c.094,2.11.117,2.743.117,8.081S36.838,25.987,36.745,28.1Zm0,0" transform="translate(-0.449 0)" fill="#2d4f4e"/><path d="M136.6,124.5a11.653,11.653,0,1,0,11.652,11.653A11.655,11.655,0,0,0,136.6,124.5Zm0,19.211a7.559,7.559,0,1,1,7.558-7.559A7.56,7.56,0,0,1,136.6,143.711Zm0,0" transform="translate(-116.595 -116.145)" fill="#2d4f4e"/><path d="M366.57,90.662a2.06,2.06,0,1,1-2.06-2.06A2.06,2.06,0,0,1,366.57,90.662Zm0,0" transform="translate(-333.612 -81.543)" fill="#2d4f4e"/></svg>